<?xml version="1.0" encoding="utf-8"?>
<!-- Generator: Adobe Illustrator 24.3.0, SVG Export Plug-In . SVG Version: 6.00 Build 0)  -->
<svg version="1.1" id="Capa_1" xmlns="http://www.w3.org/2000/svg" xmlns:xlink="http://www.w3.org/1999/xlink" x="0px" y="0px"
	 viewBox="0 0 70.68 94.89" style="enable-background:new 0 0 70.68 94.89;" xml:space="preserve">
<style type="text/css">
	.st0{fill:#010029;}
	.st1{fill:#FFFFFF;}
</style>
<g>
	<ellipse class="st0" cx="35.34" cy="47.45" rx="34.75" ry="47.45"/>
	<path class="st0" d="M35.36,94.89c-1.21-0.08-2.43-0.08-3.63-0.26c-1.3-0.19-2.58-0.53-3.85-0.85c-1.49-0.38-2.93-0.9-4.3-1.61
		c-1.08-0.56-2.21-1.06-3.22-1.73c-1.39-0.92-2.72-1.94-4-3c-1.07-0.88-2.06-1.87-3.05-2.85c-0.48-0.47-0.9-1.01-1.33-1.53
		c-0.62-0.75-1.26-1.48-1.82-2.27c-0.78-1.1-1.52-2.23-2.24-3.38c-0.63-1.01-1.21-2.05-1.77-3.1c-0.42-0.81-0.78-1.65-1.15-2.49
		c-0.41-0.95-0.81-1.92-1.19-2.89c-0.29-0.75-0.54-1.5-0.78-2.27c-0.4-1.31-0.8-2.62-1.14-3.95c-0.36-1.43-0.68-2.87-0.94-4.32
		c-0.27-1.51-0.48-3.04-0.68-4.56c-0.09-0.67-0.06-1.35-0.13-2.02c-0.24-2.26-0.13-4.52-0.13-6.78c0-0.96,0.11-1.91,0.2-2.87
		C0.33,41,0.44,39.81,0.6,38.64c0.35-2.51,0.86-4.98,1.53-7.43c0.33-1.2,0.66-2.4,1.05-3.57c0.36-1.08,0.77-2.14,1.21-3.19
		c0.54-1.29,1.11-2.56,1.71-3.82c0.31-0.67,0.7-1.3,1.07-1.94c0.41-0.71,0.82-1.43,1.27-2.11c0.76-1.14,1.54-2.27,2.35-3.38
		c0.48-0.65,1.01-1.27,1.56-1.87c0.85-0.92,1.7-1.85,2.6-2.72c0.75-0.72,1.55-1.4,2.37-2.04c0.92-0.71,1.85-1.41,2.83-2.03
		c1.04-0.65,2.14-1.23,3.23-1.79c2.16-1.11,4.47-1.79,6.83-2.29c1.02-0.22,2.08-0.33,3.13-0.39c1.2-0.07,2.41-0.1,3.61-0.05
		c0.94,0.04,1.89,0.15,2.81,0.34c1.44,0.3,2.88,0.64,4.29,1.06c1.44,0.43,2.8,1.08,4.15,1.75c1.98,1,3.79,2.25,5.5,3.65
		c1.07,0.88,2.07,1.85,3.07,2.82c0.72,0.7,1.42,1.41,2.04,2.19c0.97,1.22,1.92,2.47,2.79,3.76c0.87,1.29,1.66,2.64,2.43,4
		c0.54,0.95,1,1.94,1.45,2.94c0.54,1.2,1.08,2.4,1.52,3.63c0.55,1.54,1.04,3.09,1.47,4.67c0.45,1.68,0.86,3.37,1.18,5.08
		c0.3,1.58,0.5,3.18,0.69,4.78c0.14,1.16,0.23,2.33,0.27,3.49c0.06,1.98,0.09,3.95,0.06,5.93c-0.01,1.1-0.15,2.21-0.26,3.31
		c-0.13,1.32-0.26,2.64-0.47,3.95c-0.22,1.36-0.52,2.71-0.82,4.06c-0.46,2.12-1.06,4.21-1.77,6.26c-0.4,1.14-0.84,2.27-1.31,3.38
		c-0.5,1.16-1.01,2.31-1.6,3.43c-0.72,1.36-1.49,2.69-2.3,4c-0.62,0.99-1.32,1.94-2.03,2.87c-0.66,0.87-1.34,1.74-2.08,2.54
		c-0.93,1-1.89,1.99-2.92,2.89c-1.22,1.06-2.48,2.08-3.8,3c-1.1,0.77-2.29,1.43-3.49,2.03c-1.16,0.58-2.36,1.1-3.59,1.53
		c-1.4,0.49-2.84,0.85-4.3,1.11C38.41,94.75,36.89,94.85,35.36,94.89z M35.34,93.79c0-0.03,0-0.07,0-0.1c0.67,0,1.33,0.02,2,0
		c1.45-0.04,2.86-0.31,4.26-0.67c0.95-0.24,1.88-0.54,2.8-0.86c0.69-0.24,1.37-0.54,2.03-0.85c0.72-0.34,1.43-0.71,2.13-1.09
		c0.46-0.25,0.93-0.5,1.36-0.79c0.88-0.6,1.76-1.21,2.59-1.87c0.84-0.66,1.68-1.35,2.44-2.1c0.97-0.95,1.89-1.96,2.79-2.97
		c0.68-0.77,1.36-1.55,1.95-2.39c0.85-1.21,1.65-2.46,2.41-3.74c0.72-1.21,1.39-2.45,2.01-3.72c0.53-1.07,0.99-2.18,1.41-3.3
		c0.55-1.45,1.09-2.9,1.53-4.38c0.49-1.67,0.9-3.36,1.27-5.06c0.3-1.39,0.51-2.8,0.71-4.21c0.15-1.01,0.23-2.03,0.32-3.05
		c0.08-0.95,0.2-1.91,0.2-2.87c0-2.25,0.1-4.5-0.13-6.75c-0.07-0.67-0.05-1.35-0.13-2.02c-0.14-1.18-0.28-2.37-0.5-3.54
		c-0.3-1.65-0.65-3.29-1.03-4.92c-0.61-2.65-1.44-5.24-2.52-7.74c-0.63-1.46-1.29-2.92-2.04-4.32c-0.8-1.5-1.7-2.96-2.61-4.39
		c-0.59-0.93-1.27-1.81-1.93-2.69c-0.35-0.46-0.75-0.88-1.13-1.31c-0.33-0.38-0.64-0.78-1.01-1.13c-0.98-0.94-1.96-1.88-2.97-2.78
		c-1.51-1.36-3.16-2.55-4.95-3.51c-1.38-0.74-2.8-1.4-4.26-1.96c-1.2-0.47-2.46-0.81-3.73-1.08c-1.19-0.25-2.41-0.41-3.62-0.47
		c-1.37-0.07-2.75,0.01-4.12,0.04c-0.39,0.01-0.78,0.04-1.16,0.12c-1.11,0.23-2.23,0.43-3.32,0.74c-1.18,0.34-2.35,0.73-3.48,1.21
		c-2.02,0.87-3.96,1.89-5.69,3.25c-1.23,0.96-2.43,1.96-3.6,2.99c-0.67,0.59-1.26,1.28-1.86,1.93c-0.57,0.62-1.14,1.24-1.68,1.89
		c-0.51,0.62-0.97,1.27-1.44,1.92c-0.38,0.53-0.76,1.07-1.1,1.62c-0.46,0.73-0.88,1.48-1.31,2.23c-0.39,0.68-0.82,1.35-1.15,2.06
		c-0.6,1.25-1.18,2.51-1.7,3.8c-0.56,1.39-1.08,2.79-1.53,4.21c-0.44,1.4-0.8,2.82-1.15,4.24c-0.3,1.24-0.57,2.49-0.77,3.75
		c-0.23,1.42-0.38,2.86-0.53,4.29c-0.12,1.12-0.24,2.25-0.25,3.37c-0.03,3.12-0.1,6.25,0.31,9.36c0.14,1.09,0.24,2.18,0.43,3.26
		c0.25,1.45,0.55,2.9,0.88,4.34c0.56,2.4,1.27,4.76,2.18,7.06c0.36,0.92,0.71,1.84,1.12,2.74c0.46,0.99,0.95,1.97,1.48,2.92
		c0.73,1.31,1.46,2.63,2.29,3.88c0.81,1.23,1.71,2.4,2.63,3.55c0.7,0.87,1.48,1.66,2.23,2.49c1.18,1.28,2.51,2.39,3.89,3.46
		c1.35,1.05,2.77,1.99,4.31,2.74c0.91,0.44,1.81,0.9,2.74,1.27c0.95,0.37,1.92,0.68,2.91,0.95c1.09,0.29,2.18,0.57,3.29,0.72
		C33,93.7,34.18,93.71,35.34,93.79z"/>
	<path class="st1" d="M35.34,93.79c-1.17-0.07-2.34-0.08-3.5-0.24c-1.11-0.15-2.21-0.43-3.29-0.72c-0.98-0.26-1.96-0.57-2.91-0.95
		c-0.94-0.37-1.84-0.83-2.74-1.27c-1.54-0.75-2.96-1.7-4.31-2.74c-1.37-1.06-2.71-2.17-3.89-3.46c-0.75-0.82-1.54-1.62-2.23-2.49
		c-0.92-1.15-1.82-2.32-2.63-3.55c-0.83-1.25-1.55-2.57-2.29-3.88c-0.53-0.95-1.03-1.93-1.48-2.92c-0.41-0.9-0.76-1.82-1.12-2.74
		c-0.91-2.3-1.61-4.66-2.18-7.06c-0.34-1.44-0.63-2.89-0.88-4.34c-0.19-1.08-0.28-2.17-0.43-3.26c-0.41-3.11-0.34-6.24-0.31-9.36
		c0.01-1.12,0.13-2.25,0.25-3.37c0.15-1.43,0.3-2.87,0.53-4.29c0.2-1.26,0.47-2.51,0.77-3.75c0.34-1.42,0.71-2.85,1.15-4.24
		c0.45-1.42,0.97-2.83,1.53-4.21c0.52-1.29,1.1-2.55,1.7-3.8c0.34-0.71,0.76-1.38,1.15-2.06c0.43-0.75,0.86-1.49,1.31-2.23
		c0.35-0.55,0.72-1.09,1.1-1.62c0.47-0.65,0.93-1.3,1.44-1.92c0.53-0.65,1.11-1.27,1.68-1.89c0.61-0.66,1.19-1.34,1.86-1.93
		c1.17-1.03,2.38-2.03,3.6-2.99c1.73-1.36,3.68-2.38,5.69-3.25c1.13-0.48,2.3-0.87,3.48-1.21c1.09-0.31,2.21-0.51,3.32-0.74
		c0.38-0.08,0.77-0.11,1.16-0.12c1.37-0.03,2.75-0.11,4.12-0.04c1.21,0.06,2.44,0.22,3.62,0.47c1.26,0.27,2.52,0.61,3.73,1.08
		c1.46,0.56,2.88,1.23,4.26,1.96c1.79,0.96,3.43,2.15,4.95,3.51c1.01,0.91,1.99,1.84,2.97,2.78c0.36,0.35,0.67,0.75,1.01,1.13
		c0.38,0.44,0.78,0.85,1.13,1.31c0.66,0.88,1.34,1.76,1.93,2.69c0.91,1.44,1.81,2.89,2.61,4.39c0.75,1.4,1.41,2.86,2.04,4.32
		c1.08,2.5,1.91,5.09,2.52,7.74c0.38,1.63,0.72,3.27,1.03,4.92c0.22,1.17,0.36,2.35,0.5,3.54c0.08,0.67,0.06,1.35,0.13,2.02
		c0.23,2.25,0.13,4.5,0.13,6.75c0,0.96-0.11,1.91-0.2,2.87c-0.09,1.02-0.17,2.04-0.32,3.05c-0.2,1.41-0.41,2.82-0.71,4.21
		c-0.37,1.7-0.78,3.39-1.27,5.06c-0.44,1.48-0.98,2.93-1.53,4.38c-0.43,1.12-0.89,2.23-1.41,3.3c-0.62,1.26-1.29,2.51-2.01,3.72
		c-0.76,1.28-1.56,2.53-2.41,3.74c-0.59,0.84-1.27,1.62-1.95,2.39c-0.9,1.01-1.82,2.02-2.79,2.97c-0.77,0.75-1.6,1.44-2.44,2.1
		c-0.84,0.66-1.72,1.27-2.59,1.87c-0.43,0.3-0.9,0.55-1.36,0.79c-0.7,0.38-1.41,0.75-2.13,1.09c-0.67,0.31-1.34,0.61-2.03,0.85
		c-0.92,0.32-1.86,0.62-2.8,0.86c-1.4,0.36-2.81,0.63-4.26,0.67c-0.66,0.02-1.33,0-2,0C35.35,93.72,35.35,93.75,35.34,93.79z
		 M35.6,92.63c0.83-0.07,1.93-0.12,3.01-0.25c0.9-0.11,1.81-0.24,2.68-0.49c1.26-0.35,2.49-0.79,3.72-1.24
		c1.45-0.53,2.79-1.28,4.1-2.08c1.69-1.04,3.27-2.24,4.71-3.61c1.15-1.09,2.24-2.26,3.3-3.45c0.65-0.73,1.21-1.54,1.8-2.33
		c1.14-1.51,2.11-3.13,3.03-4.78c0.53-0.96,0.99-1.95,1.44-2.94c0.5-1.11,1-2.21,1.41-3.36c0.55-1.54,1.05-3.1,1.51-4.68
		c0.37-1.28,0.66-2.58,0.95-3.87c0.19-0.84,0.31-1.7,0.46-2.55c0.12-0.72,0.24-1.43,0.34-2.16c0.07-0.53,0.09-1.06,0.14-1.6
		c0.09-1.06,0.25-2.13,0.25-3.19c0.01-2.59,0.13-5.19-0.19-7.77c-0.11-0.86-0.17-1.72-0.27-2.58c-0.09-0.78-0.2-1.55-0.34-2.32
		c-0.23-1.29-0.45-2.59-0.76-3.86c-0.4-1.6-0.84-3.18-1.34-4.75c-0.69-2.17-1.54-4.28-2.56-6.31c-0.63-1.24-1.26-2.49-1.98-3.68
		c-0.76-1.25-1.57-2.47-2.45-3.64c-0.88-1.17-1.83-2.29-2.81-3.37c-0.68-0.76-1.45-1.45-2.22-2.13c-0.8-0.71-1.62-1.4-2.47-2.04
		c-1.74-1.3-3.61-2.38-5.6-3.24c-1.81-0.78-3.69-1.38-5.64-1.72c-1.26-0.22-2.53-0.4-3.81-0.37c-1.2,0.03-2.41,0.01-3.59,0.15
		c-1.15,0.13-2.28,0.39-3.41,0.66c-1.42,0.33-2.79,0.85-4.12,1.46c-1.82,0.83-3.55,1.82-5.14,3.04c-1.07,0.82-2.12,1.69-3.12,2.6
		c-0.91,0.83-1.74,1.75-2.57,2.66C13.51,13.4,13,14,12.53,14.64c-0.79,1.08-1.57,2.17-2.28,3.3c-0.72,1.13-1.39,2.3-2.01,3.49
		c-0.53,1.01-1,2.06-1.44,3.11c-0.52,1.24-1.02,2.5-1.47,3.77c-0.37,1.04-0.65,2.11-0.96,3.17c-0.67,2.29-1.13,4.63-1.5,6.99
		c-0.18,1.11-0.29,2.24-0.4,3.36c-0.09,0.98-0.18,1.97-0.18,2.95c-0.01,1.91,0,3.83,0.06,5.74c0.03,1.15,0.14,2.3,0.26,3.45
		c0.11,1.1,0.22,2.2,0.41,3.29c0.22,1.34,0.48,2.68,0.79,4c0.5,2.13,1.11,4.24,1.88,6.29c0.35,0.94,0.74,1.87,1.13,2.79
		c0.36,0.86,0.74,1.72,1.14,2.56c0.31,0.64,0.66,1.27,1.03,1.88c0.85,1.38,1.69,2.77,2.59,4.12c0.99,1.49,2.14,2.87,3.38,4.16
		c1.11,1.15,2.28,2.25,3.51,3.27c1.06,0.88,2.24,1.62,3.39,2.39c1.3,0.86,2.71,1.55,4.16,2.1c1.23,0.47,2.5,0.83,3.77,1.17
		c0.85,0.23,1.74,0.38,2.61,0.48C33.38,92.56,34.36,92.57,35.6,92.63z"/>
	<path class="st0" d="M35.6,92.63c-1.24-0.06-2.22-0.07-3.2-0.17c-0.88-0.1-1.76-0.25-2.61-0.48c-1.27-0.34-2.55-0.7-3.77-1.17
		c-1.45-0.55-2.86-1.24-4.16-2.1c-1.15-0.76-2.33-1.51-3.39-2.39c-1.23-1.02-2.41-2.12-3.51-3.27c-1.24-1.29-2.39-2.66-3.38-4.16
		c-0.9-1.35-1.74-2.74-2.59-4.12c-0.37-0.61-0.72-1.24-1.03-1.88c-0.41-0.84-0.78-1.7-1.14-2.56c-0.39-0.92-0.77-1.85-1.13-2.79
		c-0.77-2.05-1.38-4.15-1.88-6.29c-0.31-1.32-0.57-2.66-0.79-4c-0.18-1.09-0.3-2.19-0.41-3.29c-0.11-1.15-0.22-2.3-0.26-3.45
		c-0.06-1.91-0.07-3.82-0.06-5.74c0.01-0.99,0.09-1.97,0.18-2.95c0.1-1.12,0.22-2.25,0.4-3.36c0.37-2.36,0.82-4.7,1.5-6.99
		c0.31-1.06,0.59-2.13,0.96-3.17c0.45-1.27,0.95-2.53,1.47-3.77c0.44-1.05,0.91-2.1,1.44-3.11c0.62-1.19,1.29-2.36,2.01-3.49
		c0.72-1.13,1.49-2.22,2.28-3.3c0.46-0.63,0.97-1.24,1.5-1.81c0.83-0.91,1.67-1.82,2.57-2.66c1-0.92,2.04-1.78,3.12-2.6
		c1.59-1.22,3.32-2.2,5.14-3.04c1.33-0.61,2.7-1.13,4.12-1.46c1.13-0.26,2.26-0.53,3.41-0.66c1.19-0.13,2.4-0.12,3.59-0.15
		c1.28-0.03,2.55,0.15,3.81,0.37c1.95,0.34,3.82,0.93,5.64,1.72c1.99,0.86,3.87,1.94,5.6,3.24c0.85,0.64,1.67,1.33,2.47,2.04
		c0.77,0.68,1.53,1.37,2.22,2.13c0.98,1.09,1.93,2.2,2.81,3.37c0.88,1.17,1.69,2.39,2.45,3.64c0.72,1.19,1.35,2.44,1.98,3.68
		c1.03,2.03,1.88,4.14,2.56,6.31c0.5,1.57,0.95,3.15,1.34,4.75c0.32,1.27,0.53,2.57,0.76,3.86c0.14,0.77,0.24,1.54,0.34,2.32
		c0.1,0.86,0.17,1.72,0.27,2.58c0.32,2.58,0.2,5.18,0.19,7.77c0,1.06-0.16,2.13-0.25,3.19c-0.04,0.53-0.07,1.07-0.14,1.6
		c-0.09,0.72-0.22,1.44-0.34,2.16c-0.14,0.85-0.27,1.71-0.46,2.55c-0.29,1.3-0.58,2.6-0.95,3.87c-0.46,1.57-0.95,3.14-1.51,4.68
		c-0.41,1.14-0.91,2.25-1.41,3.36c-0.45,1-0.91,1.99-1.44,2.94c-0.91,1.65-1.89,3.27-3.03,4.78c-0.59,0.78-1.14,1.6-1.8,2.33
		c-1.06,1.18-2.14,2.35-3.3,3.45c-1.44,1.36-3.02,2.57-4.71,3.61c-1.31,0.81-2.65,1.55-4.1,2.08c-1.23,0.45-2.46,0.89-3.72,1.24
		c-0.87,0.24-1.78,0.38-2.68,0.49C37.53,92.51,36.44,92.56,35.6,92.63z M10.5,48.31c0.05,1.02,0.09,2.33,0.18,3.63
		c0.06,0.92,0.14,1.85,0.28,2.77c0.29,1.83,0.67,3.65,1.16,5.44c0.53,1.95,1.2,3.84,2.03,5.68c0.98,2.19,2.14,4.29,3.58,6.21
		c0.69,0.92,1.4,1.82,2.16,2.68c0.57,0.64,1.2,1.25,1.87,1.8c1,0.83,2.01,1.65,3.08,2.37c1.53,1.02,3.19,1.79,4.96,2.33
		c1.45,0.44,2.93,0.74,4.43,0.82c1.38,0.07,2.76,0.02,4.13-0.22c1.66-0.29,3.27-0.76,4.8-1.46c1.16-0.53,2.3-1.12,3.32-1.9
		c1.01-0.77,2-1.55,2.94-2.39c0.98-0.87,1.88-1.84,2.68-2.89c0.68-0.89,1.38-1.77,1.95-2.73c0.77-1.27,1.47-2.58,2.12-3.92
		c0.55-1.13,1.05-2.3,1.47-3.49c0.46-1.29,0.8-2.62,1.18-3.93c0.19-0.67,0.35-1.35,0.48-2.03c0.18-0.97,0.36-1.95,0.47-2.93
		c0.16-1.41,0.32-2.83,0.37-4.25c0.05-1.4,0.02-2.81-0.05-4.21c-0.07-1.36-0.2-2.73-0.38-4.08c-0.16-1.21-0.36-2.42-0.64-3.61
		c-0.33-1.43-0.72-2.84-1.16-4.24c-0.33-1.03-0.73-2.04-1.17-3.03c-0.53-1.2-1.08-2.41-1.73-3.55c-0.67-1.17-1.42-2.3-2.2-3.39
		c-0.62-0.87-1.3-1.7-2.02-2.5c-0.55-0.61-1.19-1.13-1.78-1.71c-0.94-0.92-1.99-1.7-3.09-2.41c-1.58-1.01-3.26-1.82-5.06-2.37
		c-1.43-0.44-2.89-0.72-4.37-0.81c-1.22-0.07-2.44-0.03-3.66,0.14c-1.77,0.25-3.47,0.72-5.1,1.43c-1.64,0.71-3.17,1.64-4.58,2.74
		c-1.22,0.95-2.36,1.99-3.37,3.16c-0.81,0.94-1.65,1.87-2.34,2.9c-0.87,1.29-1.65,2.65-2.41,4.01c-1,1.8-1.77,3.72-2.38,5.68
		c-0.53,1.71-0.98,3.45-1.32,5.21c-0.34,1.71-0.54,3.46-0.71,5.19C10.52,45.63,10.55,46.83,10.5,48.31z M51.22,17.53
		c0.27-0.13,0.58-0.21,0.79-0.4c0.71-0.69,1.39-1.41,2.07-2.14c0.33-0.36,0.38-0.81,0.22-1.25c-0.46-1.26-1.36-2.1-2.64-2.48
		c-0.53-0.16-1.03-0.04-1.37,0.47c-0.52,0.78-1.03,1.57-1.54,2.36c-0.44,0.68-0.26,1.31,0.16,1.91c0.15,0.21,0.33,0.41,0.53,0.59
		C49.94,17.03,50.47,17.44,51.22,17.53z M24.76,7.55c-1.1,0.14-2.1,0.57-2.8,1.53c-0.31,0.42-0.42,0.9-0.14,1.4
		c0.48,0.88,0.96,1.76,1.45,2.64c0.2,0.35,0.54,0.53,0.93,0.59c0.86,0.14,2.36-0.59,2.73-1.37c0.14-0.29,0.25-0.68,0.17-0.96
		c-0.28-1.01-0.64-1.99-0.97-2.98C25.92,7.77,25.41,7.6,24.76,7.55z M20.34,12.7c-0.2-0.27-0.37-0.55-0.58-0.8
		c-0.44-0.54-0.84-0.65-1.49-0.41c-1.08,0.41-1.89,1.15-2.43,2.16c-0.3,0.57-0.46,1.19,0.05,1.74c0.6,0.65,1.23,1.28,1.87,1.9
		c0.52,0.51,1.11,0.68,1.79,0.32c0.63-0.34,1.18-0.79,1.59-1.38c0.67-0.96,0.52-2.03-0.36-2.78c-0.52,0.42-1.04,0.85-1.57,1.29
		c0.1,0.13,0.17,0.24,0.25,0.33c0.15,0.2,0.32,0.4,0.46,0.6c0.12,0.16,0.2,0.34-0.01,0.5c-0.2,0.16-0.33,0.01-0.46-0.12
		c-0.15-0.16-0.29-0.33-0.43-0.5c-0.53-0.64-1.07-1.28-1.6-1.92c-0.18-0.22-0.14-0.39,0.08-0.56c0.25-0.19,0.37,0.03,0.49,0.16
		c0.24,0.27,0.45,0.55,0.67,0.83C19.22,13.61,19.77,13.17,20.34,12.7z M41.45,8.8c0.05,0.38-0.37,0.69,0.06,0.99
		c-0.08,0.3-0.14,0.61-0.25,0.91c-0.04,0.11-0.19,0.18-0.28,0.27c-0.04-0.12-0.14-0.26-0.11-0.37C41,9.94,41.15,9.28,41.3,8.63
		c0.09-0.4,0.18-0.8,0.29-1.2c0.04-0.16,0.07-0.39,0.33-0.34c0.26,0.05,0.19,0.26,0.16,0.44c-0.01,0.09-0.04,0.19-0.06,0.28
		c-0.04,0.19-0.09,0.39-0.13,0.6c0.67,0.21,1.3,0.42,1.95,0.63C43.9,8.84,43.95,8.69,44,8.54c0.22-0.66,0.09-1.23-0.46-1.68
		c-0.82-0.68-1.77-0.94-2.81-0.83c-0.68,0.07-1.13,0.44-1.24,1.15c-0.15,0.96-0.31,1.92-0.44,2.88c-0.1,0.68,0.23,1.16,0.78,1.51
		c0.55,0.35,1.14,0.46,1.72,0.17c0.08,0.15,0.12,0.33,0.23,0.37c0.28,0.13,0.59,0.21,0.92,0.32c0.33-0.97,0.65-1.93,0.98-2.92
		C42.95,9.28,42.24,9.06,41.45,8.8z M37.28,6.54c0.02-0.4,0.04-0.76,0.07-1.18c-1.24,0-2.43,0-3.63,0c0.09,1.94,0.18,3.83,0.27,5.76
		c1.03,0,2.03,0,3.06,0c0.03-0.35,0.06-0.71,0.09-1.1c-0.46-0.03-0.88-0.06-1.29-0.09c0-0.44,0-0.84,0-1.26
		c0.4,0.02,0.76,0.05,1.15,0.07c0.02-0.4,0.04-0.75,0.06-1.14c-0.41-0.03-0.78-0.06-1.15-0.09c0-0.36,0-0.7,0-1.05
		C36.36,6.49,36.79,6.51,37.28,6.54z M32.25,10.12c-0.43,0.07-0.8,0.13-1.2,0.19c-0.26-1.53-0.52-3.03-0.78-4.57
		c-0.74,0.17-1.44,0.33-2.16,0.5c0.47,1.89,0.92,3.74,1.37,5.58c0.99-0.2,1.94-0.39,2.91-0.59C32.35,10.87,32.31,10.51,32.25,10.12z
		 M48.93,9.09c-0.68-0.37-1.33-0.72-2-1.08c-0.78,1.78-1.54,3.51-2.31,5.25c0.56,0.3,1.08,0.58,1.62,0.87
		C47.14,12.45,48.02,10.8,48.93,9.09z M16.49,80.66c0.42-0.4,0.82-0.78,1.22-1.17c0.02,0.01,0.03,0.03,0.05,0.04
		c-0.31,0.48-0.62,0.97-0.94,1.47c0.28,0.26,0.54,0.51,0.83,0.79c0.59-0.95,1.16-1.86,1.73-2.78c-0.37-0.35-0.71-0.68-1.05-1.01
		c-0.33,0.29-0.64,0.56-0.95,0.83c0.09-0.4,0.24-0.75,0.38-1.1c0.04-0.09,0.07-0.24,0.03-0.29c-0.31-0.37-0.64-0.72-0.98-1.1
		c-0.68,0.84-1.34,1.65-2.01,2.46c0.27,0.31,0.51,0.59,0.78,0.89c0.37-0.47,0.71-0.89,1.05-1.32c-0.18,0.51-0.4,0.98-0.61,1.46
		c-0.04,0.09-0.05,0.24,0,0.31C16.15,80.33,16.32,80.48,16.49,80.66z M64.51,56.79c-1,0.19-1.95,0.37-2.89,0.56
		c-0.09,0.02-0.2,0.15-0.21,0.25c-0.11,0.59-0.19,1.19-0.29,1.78c-0.03,0.18,0.03,0.26,0.18,0.35c0.57,0.3,1.13,0.62,1.69,0.94
		c0.27,0.15,0.54,0.3,0.84,0.47c0.09-0.45,0.16-0.84,0.24-1.23c0.1-0.51,0.1-0.51-0.37-0.68c-0.02-0.01-0.03-0.03-0.06-0.06
		c0.03-0.18,0.07-0.37,0.11-0.59c0.13,0.01,0.25,0.04,0.36,0.02c0.07-0.01,0.18-0.09,0.19-0.15C64.37,57.91,64.44,57.36,64.51,56.79
		z M7.39,64.94c0.07-0.01,0.1,0,0.11-0.01c0.76-0.6,1.52-1.21,2.28-1.82c0.06-0.05,0.1-0.18,0.08-0.26
		c-0.14-0.57-0.31-1.14-0.46-1.71c-0.05-0.19-0.15-0.22-0.32-0.22c-0.6-0.01-1.2-0.02-1.81-0.04c-0.31-0.01-0.63-0.03-1-0.05
		c0.16,0.62,0.3,1.18,0.45,1.75c0.12-0.02,0.19-0.04,0.26-0.05c0.08-0.01,0.16-0.02,0.24-0.03c0.21,0.5,0.21,0.5-0.16,0.75
		c-0.05,0.04-0.1,0.14-0.08,0.2C7.11,63.94,7.25,64.44,7.39,64.94z M8.21,67.3c0.35-0.16,0.68-0.32,1.01-0.47
		c-0.19,0.36-0.41,0.67-0.63,0.99c-0.05,0.08-0.12,0.21-0.09,0.28c0.13,0.37,0.3,0.74,0.44,1.09c0.05,0,0.07,0.01,0.07,0
		c0.8-0.45,1.6-0.9,2.39-1.37c0.05-0.03,0.09-0.15,0.07-0.21c-0.12-0.32-0.26-0.64-0.4-0.98c-0.36,0.18-0.68,0.35-1,0.52
		c0.16-0.37,0.38-0.69,0.58-1.02c0.06-0.1,0.14-0.24,0.12-0.34c-0.09-0.33-0.22-0.65-0.34-1c-0.92,0.42-1.81,0.83-2.7,1.23
		c0.14,0.39,0.26,0.74,0.38,1.09C8.14,67.17,8.17,67.21,8.21,67.3z M8.04,59.28c0.49-0.07,0.65-0.19,0.67-0.55
		c0.06-0.91-0.08-1.79-0.49-2.62c-0.14-0.27-0.38-0.39-0.69-0.35C7.23,55.8,7.04,56,6.99,56.3c-0.09,0.51-0.15,1.02-0.22,1.54
		c-0.03,0.2-0.09,0.38-0.34,0.38c-0.26,0-0.25-0.22-0.29-0.39c-0.05-0.19,0.02-0.31,0.23-0.33c0.1-0.01,0.2-0.03,0.32-0.05
		c-0.08-0.54-0.16-1.05-0.24-1.55c-0.56-0.07-0.83,0.13-0.88,0.67c-0.09,0.98,0.09,1.92,0.53,2.8c0.14,0.28,0.34,0.48,0.7,0.41
		c0.35-0.06,0.57-0.23,0.64-0.6c0.08-0.42,0.11-0.86,0.17-1.29c0.02-0.15,0.03-0.3,0.09-0.43c0.03-0.07,0.17-0.15,0.24-0.13
		c0.08,0.02,0.17,0.14,0.18,0.22c0.01,0.07-0.08,0.16-0.15,0.22c-0.05,0.04-0.13,0.05-0.23,0.08C7.84,58.32,7.94,58.79,8.04,59.28z
		 M60.94,70.12c0.02-0.34-0.07-0.64-0.37-0.83c-0.39-0.25-0.79-0.5-1.19-0.73c-0.36-0.2-0.63-0.14-0.9,0.17
		c-0.42,0.51-0.67,1.1-0.72,1.76c-0.03,0.37,0.08,0.69,0.4,0.92c0.33,0.25,0.65,0.51,0.99,0.75c0.42,0.3,0.74,0.27,1.07-0.15
		C60.65,71.46,60.9,70.83,60.94,70.12z M45.7,86.89c0.63-0.33,1.25-0.64,1.84-0.98c0.38-0.22,0.45-0.52,0.3-0.93
		c-0.21-0.56-0.43-1.12-0.67-1.68c-0.24-0.57-0.5-0.67-1.08-0.43c-0.45,0.19-0.89,0.4-1.31,0.63c-0.06,0.03-0.1,0.21-0.08,0.3
		c0.28,0.93,0.58,1.85,0.88,2.78C45.6,86.66,45.64,86.75,45.7,86.89z M13.86,72.16c-0.93,0.46-1.83,0.9-2.75,1.36
		c0.27,0.45,0.52,0.87,0.79,1.3c0.17-0.12,0.29-0.21,0.42-0.3c0.31,0.33,0.31,0.33-0.06,0.88c0.27,0.39,0.54,0.78,0.83,1.2
		c0.58-0.95,1.14-1.85,1.68-2.75c0.03-0.06,0.04-0.17,0-0.23C14.48,73.14,14.17,72.66,13.86,72.16z M22.65,85.48
		c0.2-0.49,0.38-0.94,0.57-1.4c0.24,0.09,0.26,0.24,0.19,0.42c-0.12,0.31-0.25,0.63-0.35,0.95c-0.03,0.08,0.01,0.24,0.07,0.28
		c0.26,0.17,0.55,0.31,0.88,0.49c0.09-0.67,0.71-1.2,0.22-1.87c0.12-0.04,0.27-0.05,0.36-0.13c0.38-0.32,0.41-1.13,0.01-1.43
		c-0.51-0.39-1.07-0.71-1.64-1.08c-0.46,1.04-0.89,2.02-1.31,3.01c-0.02,0.05,0.02,0.15,0.06,0.18C22,85.1,22.31,85.28,22.65,85.48z
		 M34.26,87.18c0.09-0.07,0.21-0.13,0.28-0.23c0.35-0.51,0.01-1.36-0.59-1.47c-0.48-0.09-0.96-0.14-1.45-0.18
		c-0.06-0.01-0.19,0.11-0.2,0.19c-0.1,1.02-0.19,2.04-0.27,3.06c-0.01,0.08,0.08,0.24,0.14,0.25c0.32,0.06,0.64,0.08,0.99,0.12
		c0.04-0.54,0.08-1.05,0.12-1.59c0.1,0.04,0.21,0.06,0.21,0.08c0.03,0.51,0.05,1.01,0.08,1.55c0.34,0.02,0.68,0.04,1.09,0.06
		C34.48,88.37,34.93,87.67,34.26,87.18z M60.87,65.92c0.14-0.45,0.26-0.85,0.38-1.25c0.01-0.05,0-0.13-0.04-0.17
		c-0.25-0.26-0.87-0.25-1.09,0.04c-0.48,0.64-0.72,1.36-0.7,2.16c0.01,0.29,0.12,0.54,0.38,0.69c0.41,0.24,0.82,0.48,1.25,0.69
		c0.35,0.17,0.62,0.11,0.84-0.2c0.49-0.7,0.77-1.48,0.67-2.35c-0.05-0.43-0.37-0.71-0.84-0.76c-0.08,0.26-0.16,0.52-0.24,0.78
		c-0.16,0.52-0.16,0.52,0.28,0.8c0.05,0.03,0.12,0.07,0.14,0.12c0.02,0.07,0.02,0.17-0.02,0.23c-0.02,0.04-0.14,0.09-0.18,0.07
		c-0.52-0.25-1.05-0.5-1.56-0.78c-0.05-0.03-0.07-0.19-0.05-0.27c0.01-0.04,0.16-0.07,0.23-0.05
		C60.49,65.72,60.65,65.81,60.87,65.92z M20.85,84.36c0.04-0.05,0.06-0.06,0.06-0.08c0.27-1.06,0.55-2.13,0.81-3.19
		c0.02-0.07-0.01-0.18-0.06-0.22c-0.4-0.32-0.81-0.63-1.23-0.94c-0.72,0.82-1.43,1.61-2.16,2.43c0.36,0.29,0.7,0.58,1.05,0.87
		c0.12-0.18,0.22-0.33,0.32-0.47c0.32,0.13,0.44,0.31,0.24,0.62c-0.04,0.07-0.05,0.23,0,0.27C20.21,83.9,20.53,84.13,20.85,84.36z
		 M28,85.63c0.13-0.5,0.2-0.94-0.15-1.31c-0.35-0.37-0.78-0.58-1.28-0.62c-0.44-0.03-0.68,0.12-0.82,0.54
		c-0.18,0.54-0.34,1.09-0.51,1.63c-0.09,0.29-0.04,0.56,0.14,0.81c0.34,0.46,0.78,0.7,1.23,0.61c0.36,0.18,0.62,0.31,0.92,0.46
		c0.14-0.61,0.26-1.15,0.37-1.68c0.01-0.06-0.06-0.18-0.12-0.21c-0.35-0.15-0.71-0.27-1.1-0.42c-0.04,0.18-0.15,0.43-0.09,0.49
		c0.25,0.24,0.02,0.43-0.01,0.63c-0.01,0.05-0.12,0.09-0.18,0.14c-0.04-0.08-0.12-0.17-0.11-0.23c0.16-0.65,0.34-1.29,0.52-1.93
		c0.01-0.05,0.1-0.08,0.16-0.12c0.04,0.07,0.11,0.13,0.11,0.2c-0.01,0.15-0.07,0.29-0.08,0.43c-0.01,0.08,0.03,0.21,0.08,0.23
		C27.38,85.41,27.67,85.51,28,85.63z M43.43,87.76c-0.46-1.05-0.9-2.04-1.35-3.03c-0.03-0.07-0.18-0.15-0.25-0.13
		c-0.37,0.08-0.74,0.17-1.1,0.29c-0.09,0.03-0.19,0.18-0.2,0.28c-0.02,0.78-0.01,1.56-0.01,2.34c0,0.32,0,0.65,0,1.03
		c0.41-0.1,0.8-0.19,1.21-0.28c-0.03-0.19-0.1-0.38-0.06-0.52c0.04-0.11,0.23-0.16,0.38-0.26c0.08,0.25,0.14,0.43,0.21,0.64
		C42.66,88.01,43.04,87.89,43.43,87.76z M31.2,88.65c0.01-0.05,0.03-0.08,0.03-0.11c-0.07-1.1-0.13-2.2-0.22-3.29
		c-0.01-0.09-0.13-0.21-0.22-0.24c-0.34-0.11-0.7-0.17-1.04-0.27c-0.2-0.06-0.28-0.01-0.35,0.18c-0.21,0.6-0.44,1.19-0.66,1.78
		c-0.15,0.4-0.3,0.81-0.47,1.25c0.42,0.11,0.81,0.22,1.22,0.33c0.06-0.23,0.1-0.41,0.14-0.59c0.33-0.01,0.48,0.1,0.4,0.43
		c-0.06,0.23,0.05,0.32,0.27,0.35C30.6,88.52,30.9,88.59,31.2,88.65z M57.92,72.76c-0.15-0.12-0.26-0.22-0.38-0.3
		c-0.37-0.25-0.59-0.25-0.91,0.05c-0.47,0.43-0.8,0.97-0.87,1.61c-0.02,0.23,0.03,0.54,0.17,0.71c0.35,0.43,0.76,0.82,1.18,1.19
		c0.3,0.27,0.51,0.26,0.82,0c0.56-0.49,0.92-1.1,1.01-1.85c0.05-0.48-0.18-0.83-0.66-1.05c-0.1,0.18-0.2,0.36-0.31,0.55
		c-0.11,0.19-0.21,0.38-0.32,0.56c0.57,0.59,0.57,0.59,0.34,0.82c-0.13-0.11-0.26-0.21-0.38-0.32c-0.34-0.32-0.69-0.63-1.01-0.96
		c-0.06-0.06-0.03-0.2-0.04-0.3c0.09,0.02,0.19,0,0.26,0.05c0.15,0.11,0.28,0.24,0.45,0.39C57.5,73.51,57.7,73.15,57.92,72.76z
		 M54.72,76.87c0.21-0.26,0.41-0.51,0.59-0.76c0.04-0.05,0.06-0.14,0.04-0.19c-0.11-0.27-0.5-0.42-0.75-0.27
		c-0.59,0.34-1,0.85-1.18,1.51c-0.1,0.39,0.1,0.7,0.38,0.95c0.26,0.23,0.53,0.13,0.8,0c0.23-0.11,0.46-0.21,0.69-0.32
		c0.2-0.1,0.38-0.02,0.45,0.15c0.05,0.11,0.03,0.31-0.04,0.41c-0.11,0.17-0.23,0.03-0.33-0.07c-0.07-0.08-0.15-0.16-0.24-0.26
		c-0.27,0.32-0.51,0.61-0.74,0.89c0.4,0.59,0.64,0.7,1.04,0.45c0.63-0.4,1.04-0.97,1.26-1.69c0.11-0.38-0.1-0.63-0.34-0.86
		c-0.22-0.22-0.49-0.28-0.79-0.15c-0.22,0.1-0.44,0.2-0.66,0.3c-0.11,0.05-0.22,0.13-0.32,0.12c-0.12-0.01-0.23-0.1-0.32-0.19
		c-0.03-0.03,0.03-0.15,0.04-0.22c0.1,0.05,0.2,0.09,0.3,0.14C54.63,76.8,54.66,76.82,54.72,76.87z M54.04,79.95
		c-0.21,0.28-0.39,0.5-0.56,0.73c-0.47-0.52-0.47-0.52-0.06-0.97c0.12-0.13,0.13-0.23,0.01-0.35c-0.08-0.09-0.16-0.19-0.26-0.32
		c-0.1,0.11-0.17,0.19-0.23,0.28c-0.06,0.1-0.11,0.21-0.17,0.32c-0.45-0.55-0.45-0.55-0.09-0.94c0.04-0.04,0.09-0.07,0.1-0.12
		c0.02-0.07,0.04-0.16,0.01-0.22c-0.08-0.14-0.19-0.27-0.32-0.43c-0.41,0.42-0.79,0.82-1.18,1.19c-0.15,0.14-0.14,0.24-0.03,0.4
		c0.49,0.76,0.97,1.53,1.45,2.3c0.05,0.08,0.12,0.16,0.22,0.3c0.52-0.56,1.01-1.08,1.52-1.61C54.35,80.38,54.24,80.22,54.04,79.95z
		 M49.21,80.9c-0.47,0.32-0.9,0.62-1.33,0.89c-0.16,0.1-0.19,0.19-0.11,0.36c0.29,0.64,0.58,1.29,0.87,1.94
		c0.14,0.31,0.28,0.63,0.44,0.99c0.61-0.43,1.18-0.82,1.75-1.23c-0.13-0.22-0.23-0.4-0.34-0.59c-0.26,0.18-0.48,0.33-0.72,0.5
		c-0.11-0.24-0.21-0.45-0.3-0.64c0.61-0.52,0.62-0.57,0.24-0.97c-0.09,0.06-0.17,0.11-0.26,0.17c-0.08,0.06-0.17,0.12-0.25,0.17
		c-0.35-0.49-0.35-0.5,0.09-0.83c0.07-0.06,0.14-0.12,0.21-0.19C49.41,81.28,49.32,81.11,49.21,80.9z M12.87,71.66
		c0.18-0.15,0.32-0.26,0.45-0.37c-0.47-0.88-0.92-1.74-1.37-2.59c-0.6,0.36-0.52,0.22-0.28,0.76c0.04,0.09,0.09,0.19,0.14,0.3
		c-0.66,0.45-1.31,0.89-1.98,1.34c0.23,0.45,0.45,0.86,0.68,1.3c0.66-0.49,1.28-0.96,1.92-1.43C12.59,71.21,12.72,71.41,12.87,71.66
		z M38.39,88.88c0.32-0.04,0.6-0.09,0.89-0.11c0.21-0.02,0.26-0.11,0.23-0.31c-0.09-0.63-0.16-1.26-0.24-1.89
		c-0.08-0.6-0.08-0.6,0.48-0.76c0.02,0,0.03-0.03,0.07-0.06c-0.01-0.09-0.04-0.19-0.04-0.29c0-0.3-0.12-0.37-0.42-0.3
		c-0.47,0.1-0.96,0.16-1.44,0.22c-0.55,0.07-0.55,0.06-0.47,0.62c0.01,0.04,0.03,0.07,0.05,0.12c0.19-0.01,0.38-0.03,0.6-0.04
		C38.2,87.01,38.29,87.92,38.39,88.88z M60.44,62.74c0.94,0.34,1.85,0.67,2.8,1.01c0.13-0.55,0.25-1.06,0.37-1.58
		c-0.97-0.29-1.89-0.57-2.83-0.85C60.66,61.81,60.55,62.26,60.44,62.74z M36.82,89.05c-0.06-1.25-0.11-2.4-0.16-3.55
		c-0.32,0-0.6-0.01-0.87,0.01c-0.07,0.01-0.18,0.12-0.17,0.19c0.01,1.04,0.02,2.09,0.06,3.13c0,0.07,0.12,0.2,0.19,0.2
		C36.17,89.07,36.47,89.05,36.82,89.05z"/>
	<path class="st1" d="M10.5,48.31c0.05-1.48,0.02-2.68,0.13-3.87c0.17-1.74,0.38-3.48,0.71-5.19c0.34-1.75,0.79-3.5,1.32-5.21
		c0.61-1.96,1.37-3.88,2.38-5.68c0.76-1.36,1.53-2.72,2.41-4.01c0.7-1.02,1.53-1.96,2.34-2.9c1.01-1.17,2.15-2.21,3.37-3.16
		c1.41-1.1,2.94-2.03,4.58-2.74c1.63-0.71,3.33-1.18,5.1-1.43c1.22-0.17,2.44-0.21,3.66-0.14c1.48,0.08,2.94,0.37,4.37,0.81
		c1.8,0.55,3.48,1.36,5.06,2.37c1.1,0.71,2.15,1.49,3.09,2.41c0.59,0.58,1.23,1.1,1.78,1.71c0.71,0.8,1.4,1.63,2.02,2.5
		c0.78,1.1,1.54,2.22,2.2,3.39c0.65,1.14,1.2,2.35,1.73,3.55c0.44,0.99,0.85,2,1.17,3.03c0.44,1.4,0.83,2.81,1.16,4.24
		c0.28,1.19,0.48,2.4,0.64,3.61c0.18,1.36,0.31,2.72,0.38,4.08c0.07,1.4,0.11,2.81,0.05,4.21c-0.05,1.42-0.21,2.83-0.37,4.25
		c-0.11,0.98-0.29,1.96-0.47,2.93c-0.13,0.68-0.29,1.36-0.48,2.03c-0.37,1.32-0.72,2.65-1.18,3.93c-0.42,1.19-0.92,2.36-1.47,3.49
		c-0.65,1.33-1.35,2.65-2.12,3.92c-0.58,0.95-1.28,1.84-1.95,2.73c-0.8,1.05-1.7,2.01-2.68,2.89c-0.94,0.84-1.94,1.63-2.94,2.39
		c-1.02,0.78-2.16,1.37-3.32,1.9c-1.53,0.69-3.14,1.17-4.8,1.46c-1.37,0.24-2.75,0.29-4.13,0.22c-1.51-0.08-2.98-0.37-4.43-0.82
		c-1.77-0.54-3.43-1.31-4.96-2.33c-1.08-0.72-2.09-1.54-3.08-2.37c-0.66-0.55-1.3-1.15-1.87-1.8c-0.76-0.86-1.47-1.76-2.16-2.68
		c-1.44-1.92-2.6-4.02-3.58-6.21c-0.82-1.84-1.49-3.74-2.03-5.68c-0.49-1.79-0.87-3.61-1.16-5.44c-0.14-0.91-0.22-1.84-0.28-2.77
		C10.59,50.64,10.55,49.33,10.5,48.31z M11.33,48.01c0,2.05,0.09,4.09,0.41,6.11c0.22,1.4,0.47,2.79,0.76,4.18
		c0.35,1.66,0.87,3.28,1.45,4.87c0.6,1.63,1.29,3.21,2.12,4.73c0.99,1.81,2.11,3.54,3.44,5.14c1.1,1.32,2.29,2.54,3.61,3.62
		c1.51,1.24,3.15,2.26,4.94,3.05c1.79,0.79,3.65,1.3,5.6,1.47c1.35,0.12,2.72,0.1,4.08-0.08c2.31-0.31,4.47-1.05,6.5-2.17
		c2.72-1.5,5-3.53,6.98-5.92c1.51-1.83,2.78-3.81,3.84-5.93c0.59-1.19,1.09-2.42,1.59-3.65c0.81-2.01,1.4-4.08,1.8-6.21
		c0.28-1.47,0.49-2.96,0.68-4.45c0.13-1.05,0.22-2.12,0.23-3.18c0.01-1.59-0.04-3.19-0.1-4.78c-0.03-0.89-0.09-1.79-0.23-2.67
		c-0.22-1.41-0.49-2.81-0.78-4.21c-0.47-2.28-1.21-4.47-2.1-6.62c-0.63-1.52-1.37-2.99-2.22-4.41c-0.95-1.58-1.97-3.12-3.24-4.47
		c-1-1.06-2-2.11-3.11-3.05c-2.03-1.72-4.33-3-6.88-3.8c-1.39-0.44-2.82-0.72-4.27-0.79c-1.02-0.05-2.05,0.01-3.06,0.09
		c-1.97,0.16-3.85,0.74-5.64,1.56c-2.15,0.99-4.1,2.31-5.8,3.96c-1.06,1.02-2.06,2.12-2.98,3.26c-1.29,1.6-2.35,3.37-3.28,5.2
		c-0.84,1.66-1.58,3.36-2.13,5.14c-0.46,1.48-0.86,2.97-1.22,4.47c-0.48,1.99-0.74,4.03-0.88,6.07
		C11.36,45.7,11.36,46.86,11.33,48.01z"/>
	<path class="st1" d="M51.22,17.53c-0.76-0.09-1.28-0.5-1.78-0.95c-0.19-0.18-0.38-0.37-0.53-0.59c-0.42-0.6-0.6-1.24-0.16-1.91
		c0.51-0.79,1.03-1.57,1.54-2.36c0.33-0.51,0.84-0.62,1.37-0.47c1.28,0.38,2.17,1.22,2.64,2.48c0.16,0.44,0.11,0.89-0.22,1.25
		c-0.68,0.73-1.36,1.45-2.07,2.14C51.81,17.32,51.49,17.4,51.22,17.53z M50.27,16.01c0.12-0.1,0.23-0.18,0.32-0.29
		c0.65-0.8,1.3-1.6,1.95-2.41c0.11-0.14,0.24-0.31,0.04-0.47c-0.21-0.17-0.35-0.01-0.47,0.14c-0.38,0.48-0.76,0.96-1.13,1.45
		c-0.3,0.38-0.59,0.77-0.87,1.17c-0.05,0.06-0.06,0.18-0.04,0.25C50.09,15.92,50.19,15.95,50.27,16.01z"/>
	<path class="st1" d="M24.76,7.55c0.64,0.05,1.16,0.22,1.37,0.85c0.34,0.99,0.7,1.97,0.97,2.98c0.08,0.29-0.03,0.67-0.17,0.96
		c-0.37,0.78-1.87,1.5-2.73,1.37c-0.4-0.06-0.73-0.24-0.93-0.59c-0.49-0.87-0.96-1.76-1.45-2.64c-0.28-0.5-0.17-0.98,0.14-1.4
		C22.67,8.12,23.67,7.69,24.76,7.55z M25.47,12.32c-0.04-0.14-0.07-0.24-0.11-0.34c-0.34-0.8-0.69-1.61-1.03-2.41
		c-0.09-0.21-0.17-0.43-0.3-0.63c-0.04-0.07-0.21-0.12-0.28-0.09c-0.08,0.03-0.14,0.17-0.15,0.27c-0.01,0.1,0.05,0.2,0.09,0.3
		c0.27,0.62,0.55,1.23,0.83,1.85c0.17,0.37,0.34,0.75,0.53,1.11c0.04,0.07,0.16,0.12,0.24,0.12C25.37,12.48,25.42,12.37,25.47,12.32
		z"/>
	<path class="st1" d="M20.34,12.7c-0.57,0.47-1.12,0.91-1.69,1.38c-0.22-0.28-0.44-0.57-0.67-0.83c-0.12-0.14-0.24-0.35-0.49-0.16
		c-0.22,0.17-0.26,0.34-0.08,0.56c0.54,0.64,1.07,1.28,1.6,1.92c0.14,0.17,0.28,0.34,0.43,0.5c0.12,0.13,0.26,0.28,0.46,0.12
		c0.2-0.16,0.12-0.34,0.01-0.5c-0.15-0.21-0.31-0.4-0.46-0.6c-0.08-0.1-0.15-0.2-0.25-0.33c0.54-0.44,1.06-0.87,1.57-1.29
		c0.88,0.75,1.03,1.82,0.36,2.78c-0.41,0.59-0.96,1.04-1.59,1.38c-0.68,0.36-1.27,0.19-1.79-0.32c-0.63-0.62-1.26-1.25-1.87-1.9
		c-0.51-0.55-0.35-1.18-0.05-1.74c0.54-1.01,1.35-1.75,2.43-2.16c0.64-0.24,1.04-0.13,1.49,0.41C19.97,12.15,20.14,12.43,20.34,12.7
		z"/>
	<path class="st1" d="M41.45,8.8c0.79,0.25,1.5,0.48,2.23,0.71c-0.34,1-0.66,1.95-0.98,2.92c-0.33-0.11-0.64-0.19-0.92-0.32
		c-0.1-0.05-0.14-0.23-0.23-0.37c-0.58,0.28-1.16,0.18-1.72-0.17c-0.55-0.35-0.88-0.84-0.78-1.51c0.14-0.96,0.29-1.92,0.44-2.88
		c0.11-0.71,0.56-1.08,1.24-1.15c1.04-0.11,1.99,0.15,2.81,0.83C44.1,7.31,44.23,7.88,44,8.54c-0.05,0.15-0.1,0.3-0.17,0.48
		c-0.65-0.21-1.28-0.41-1.95-0.63c0.05-0.21,0.09-0.4,0.13-0.6c0.02-0.09,0.05-0.18,0.06-0.28c0.02-0.17,0.1-0.38-0.16-0.44
		c-0.26-0.05-0.29,0.17-0.33,0.34c-0.11,0.4-0.2,0.8-0.29,1.2c-0.15,0.66-0.3,1.32-0.43,1.98c-0.02,0.11,0.07,0.25,0.11,0.37
		c0.1-0.09,0.24-0.16,0.28-0.27c0.11-0.3,0.17-0.61,0.25-0.91C41.09,9.49,41.5,9.19,41.45,8.8z"/>
	<path class="st1" d="M37.28,6.54c-0.48-0.02-0.91-0.05-1.38-0.07c0,0.36,0,0.7,0,1.05c0.36,0.03,0.74,0.06,1.15,0.09
		c-0.02,0.38-0.04,0.74-0.06,1.14c-0.39-0.02-0.75-0.05-1.15-0.07c0,0.42,0,0.82,0,1.26c0.41,0.03,0.83,0.06,1.29,0.09
		c-0.03,0.39-0.06,0.75-0.09,1.1c-1.03,0-2.03,0-3.06,0c-0.09-1.93-0.18-3.83-0.27-5.76c1.21,0,2.39,0,3.63,0
		C37.32,5.78,37.3,6.14,37.28,6.54z"/>
	<path class="st1" d="M32.25,10.12c0.05,0.39,0.1,0.74,0.14,1.11c-0.97,0.2-1.92,0.39-2.91,0.59c-0.45-1.84-0.91-3.69-1.37-5.58
		c0.72-0.17,1.42-0.33,2.16-0.5c0.26,1.54,0.52,3.04,0.78,4.57C31.45,10.25,31.82,10.19,32.25,10.12z"/>
	<path class="st1" d="M48.93,9.09c-0.91,1.7-1.79,3.35-2.69,5.04c-0.54-0.29-1.06-0.57-1.62-0.87c0.76-1.74,1.53-3.47,2.31-5.25
		C47.6,8.38,48.25,8.73,48.93,9.09z"/>
	<path class="st1" d="M16.49,80.66c-0.18-0.18-0.34-0.33-0.47-0.5c-0.05-0.07-0.04-0.22,0-0.31c0.21-0.48,0.44-0.95,0.61-1.46
		c-0.34,0.42-0.67,0.85-1.05,1.32c-0.27-0.3-0.51-0.59-0.78-0.89c0.67-0.82,1.32-1.62,2.01-2.46c0.34,0.38,0.67,0.73,0.98,1.1
		c0.04,0.05,0,0.2-0.03,0.29c-0.14,0.35-0.29,0.7-0.38,1.1c0.31-0.27,0.62-0.54,0.95-0.83c0.34,0.33,0.68,0.65,1.05,1.01
		c-0.57,0.91-1.14,1.82-1.73,2.78c-0.29-0.28-0.56-0.53-0.83-0.79c0.32-0.5,0.63-0.98,0.94-1.47c-0.02-0.01-0.03-0.03-0.05-0.04
		C17.31,79.88,16.91,80.26,16.49,80.66z"/>
	<path class="st1" d="M64.51,56.79c-0.07,0.57-0.14,1.11-0.22,1.65c-0.01,0.06-0.11,0.13-0.19,0.15c-0.11,0.02-0.23-0.01-0.36-0.02
		c-0.04,0.22-0.07,0.41-0.11,0.59c0.03,0.03,0.04,0.06,0.06,0.06c0.46,0.17,0.47,0.17,0.37,0.68c-0.07,0.39-0.15,0.79-0.24,1.23
		c-0.3-0.17-0.57-0.32-0.84-0.47c-0.56-0.31-1.12-0.63-1.69-0.94c-0.15-0.08-0.21-0.17-0.18-0.35c0.1-0.59,0.18-1.19,0.29-1.78
		c0.02-0.1,0.13-0.23,0.21-0.25C62.57,57.16,63.51,56.98,64.51,56.79z M62.12,58.6c0,0.02,0,0.04-0.01,0.05
		c0.33,0.15,0.66,0.3,1.02,0.47c0.03-0.2,0.05-0.35,0.08-0.52C62.82,58.6,62.47,58.6,62.12,58.6z"/>
	<path class="st1" d="M7.39,64.94c-0.14-0.51-0.28-1-0.41-1.5c-0.01-0.06,0.03-0.16,0.08-0.2c0.37-0.25,0.37-0.25,0.16-0.75
		c-0.08,0.01-0.16,0.02-0.24,0.03c-0.07,0.01-0.14,0.03-0.26,0.05C6.58,62,6.43,61.44,6.28,60.82c0.37,0.02,0.68,0.04,1,0.05
		c0.6,0.02,1.2,0.03,1.81,0.04c0.17,0,0.27,0.04,0.32,0.22c0.14,0.57,0.31,1.14,0.46,1.71c0.02,0.08-0.02,0.21-0.08,0.26
		c-0.75,0.61-1.52,1.21-2.28,1.82C7.49,64.94,7.46,64.94,7.39,64.94z M8.78,62.33c-0.01-0.02-0.01-0.05-0.02-0.07
		c-0.33,0.02-0.66,0.05-1.03,0.07c0.05,0.18,0.09,0.31,0.14,0.48C8.2,62.64,8.49,62.49,8.78,62.33z"/>
	<path class="st1" d="M8.21,67.3c-0.04-0.09-0.07-0.13-0.09-0.18c-0.12-0.35-0.25-0.7-0.38-1.09c0.89-0.41,1.78-0.81,2.7-1.23
		c0.12,0.35,0.25,0.67,0.34,1c0.03,0.1-0.05,0.24-0.12,0.34c-0.2,0.33-0.42,0.64-0.58,1.02c0.32-0.17,0.64-0.33,1-0.52
		c0.14,0.34,0.28,0.66,0.4,0.98c0.02,0.06-0.02,0.18-0.07,0.21c-0.79,0.46-1.59,0.91-2.39,1.37c-0.01,0-0.02,0-0.07,0
		c-0.15-0.35-0.31-0.71-0.44-1.09c-0.03-0.07,0.04-0.2,0.09-0.28c0.21-0.32,0.44-0.63,0.63-0.99C8.9,66.98,8.57,67.14,8.21,67.3z"/>
	<path class="st1" d="M8.04,59.28c-0.1-0.49-0.2-0.96-0.31-1.44c0.1-0.03,0.18-0.04,0.23-0.08c0.07-0.06,0.16-0.15,0.15-0.22
		c-0.01-0.08-0.1-0.2-0.18-0.22c-0.07-0.02-0.21,0.06-0.24,0.13c-0.06,0.13-0.07,0.28-0.09,0.43c-0.06,0.43-0.09,0.86-0.17,1.29
		c-0.07,0.37-0.29,0.54-0.64,0.6c-0.36,0.06-0.56-0.13-0.7-0.41c-0.44-0.88-0.61-1.82-0.53-2.8c0.05-0.54,0.32-0.74,0.88-0.67
		c0.08,0.5,0.16,1.01,0.24,1.55c-0.12,0.02-0.22,0.04-0.32,0.05c-0.21,0.02-0.28,0.14-0.23,0.33c0.04,0.16,0.03,0.39,0.29,0.39
		c0.25,0,0.31-0.18,0.34-0.38c0.07-0.51,0.13-1.03,0.22-1.54c0.05-0.3,0.24-0.49,0.55-0.54c0.3-0.04,0.55,0.08,0.69,0.35
		c0.41,0.82,0.55,1.7,0.49,2.62C8.69,59.09,8.53,59.21,8.04,59.28z"/>
	<path class="st1" d="M60.94,70.12c-0.05,0.71-0.3,1.34-0.73,1.89c-0.33,0.42-0.64,0.45-1.07,0.15c-0.34-0.24-0.66-0.5-0.99-0.75
		c-0.31-0.23-0.42-0.54-0.4-0.92c0.05-0.67,0.3-1.25,0.72-1.76c0.26-0.32,0.54-0.37,0.9-0.17c0.41,0.23,0.8,0.48,1.19,0.73
		C60.87,69.48,60.96,69.78,60.94,70.12z M58.6,69.68c-0.05,0.04-0.12,0.08-0.12,0.12c0,0.08,0.01,0.21,0.07,0.25
		c0.47,0.34,0.94,0.68,1.42,1c0.04,0.03,0.16,0.02,0.19-0.01c0.04-0.06,0.07-0.17,0.05-0.23c-0.03-0.08-0.11-0.15-0.19-0.2
		c-0.4-0.28-0.8-0.55-1.2-0.82C58.75,69.75,58.68,69.72,58.6,69.68z"/>
	<path class="st1" d="M45.7,86.89c-0.06-0.14-0.1-0.22-0.13-0.31c-0.3-0.93-0.6-1.85-0.88-2.78c-0.03-0.09,0.01-0.27,0.08-0.3
		c0.43-0.23,0.87-0.44,1.31-0.63c0.57-0.24,0.83-0.13,1.08,0.43c0.24,0.55,0.46,1.11,0.67,1.68c0.16,0.41,0.08,0.7-0.3,0.93
		C46.95,86.25,46.33,86.55,45.7,86.89z M46.54,85.76c0.24-0.06,0.26-0.2,0.21-0.37c-0.07-0.21-0.15-0.42-0.22-0.62
		c-0.12-0.34-0.24-0.67-0.38-1c-0.03-0.07-0.15-0.1-0.23-0.15c-0.02,0.09-0.07,0.18-0.05,0.26c0.07,0.24,0.16,0.48,0.25,0.72
		C46.26,84.98,46.4,85.37,46.54,85.76z"/>
	<path class="st1" d="M13.86,72.16c0.31,0.5,0.62,0.98,0.91,1.47c0.03,0.06,0.03,0.17,0,0.23c-0.55,0.9-1.1,1.8-1.68,2.75
		c-0.29-0.42-0.56-0.82-0.83-1.2c0.37-0.54,0.37-0.54,0.06-0.88c-0.12,0.09-0.25,0.18-0.42,0.3c-0.26-0.43-0.51-0.85-0.79-1.3
		C12.03,73.06,12.93,72.62,13.86,72.16z M12.73,74.12c0.08,0.13,0.15,0.23,0.24,0.37c0.24-0.29,0.46-0.56,0.68-0.82
		c-0.01-0.02-0.03-0.04-0.04-0.06C13.33,73.78,13.04,73.94,12.73,74.12z"/>
	<path class="st1" d="M22.65,85.48c-0.34-0.2-0.64-0.38-0.94-0.57c-0.04-0.03-0.08-0.14-0.06-0.18c0.43-0.99,0.86-1.97,1.31-3.01
		c0.57,0.37,1.13,0.69,1.64,1.08c0.39,0.3,0.36,1.12-0.01,1.43c-0.09,0.08-0.24,0.09-0.36,0.13c0.48,0.67-0.14,1.2-0.22,1.87
		c-0.33-0.18-0.62-0.32-0.88-0.49c-0.06-0.04-0.09-0.2-0.07-0.28c0.1-0.32,0.23-0.64,0.35-0.95c0.07-0.19,0.06-0.33-0.19-0.42
		C23.03,84.54,22.85,84.99,22.65,85.48z M23.7,82.89c-0.08,0.17-0.14,0.31-0.2,0.46c-0.01,0.03-0.03,0.06-0.03,0.09
		c0.01,0.06,0.01,0.14,0.05,0.16c0.06,0.03,0.15,0.04,0.2,0.01C23.91,83.47,23.91,83.07,23.7,82.89z"/>
	<path class="st1" d="M34.26,87.18c0.67,0.49,0.22,1.19,0.39,1.85c-0.4-0.02-0.74-0.04-1.09-0.06c-0.02-0.54-0.04-1.05-0.08-1.55
		c0-0.02-0.11-0.04-0.21-0.08c-0.04,0.54-0.08,1.05-0.12,1.59c-0.34-0.04-0.67-0.06-0.99-0.12c-0.06-0.01-0.15-0.16-0.14-0.25
		c0.08-1.02,0.17-2.04,0.27-3.06c0.01-0.07,0.14-0.19,0.2-0.19c0.48,0.04,0.97,0.09,1.45,0.18c0.6,0.11,0.94,0.96,0.59,1.47
		C34.48,87.05,34.36,87.11,34.26,87.18z M33.31,86.77c0.39,0,0.29-0.26,0.32-0.43c0.03-0.17-0.03-0.31-0.28-0.32
		C33.34,86.28,33.32,86.51,33.31,86.77z"/>
	<path class="st1" d="M60.87,65.92c-0.22-0.1-0.37-0.19-0.54-0.25c-0.07-0.02-0.22,0.02-0.23,0.05c-0.02,0.08-0.01,0.24,0.05,0.27
		c0.51,0.27,1.04,0.53,1.56,0.78c0.04,0.02,0.16-0.02,0.18-0.07c0.03-0.06,0.04-0.16,0.02-0.23c-0.01-0.05-0.09-0.09-0.14-0.12
		c-0.44-0.29-0.44-0.29-0.28-0.8c0.08-0.26,0.16-0.52,0.24-0.78c0.47,0.05,0.8,0.33,0.84,0.76c0.1,0.87-0.18,1.65-0.67,2.35
		c-0.22,0.32-0.49,0.38-0.84,0.2c-0.43-0.21-0.84-0.45-1.25-0.69c-0.26-0.15-0.38-0.4-0.38-0.69c-0.02-0.8,0.22-1.52,0.7-2.16
		c0.22-0.29,0.84-0.31,1.09-0.04c0.03,0.04,0.05,0.12,0.04,0.17C61.13,65.07,61,65.47,60.87,65.92z"/>
	<path class="st1" d="M20.85,84.36c-0.32-0.23-0.65-0.46-0.95-0.71c-0.05-0.04-0.04-0.2,0-0.27c0.19-0.31,0.08-0.48-0.24-0.62
		c-0.09,0.14-0.19,0.28-0.32,0.47c-0.36-0.3-0.7-0.58-1.05-0.87c0.73-0.82,1.44-1.62,2.16-2.43c0.41,0.32,0.83,0.62,1.23,0.94
		c0.05,0.04,0.07,0.15,0.06,0.22c-0.27,1.07-0.54,2.13-0.81,3.19C20.91,84.3,20.89,84.31,20.85,84.36z M20.65,81.43
		c-0.02-0.01-0.05-0.02-0.07-0.03c-0.21,0.27-0.42,0.54-0.64,0.82c0.12,0.08,0.2,0.15,0.31,0.23C20.4,82.09,20.53,81.76,20.65,81.43
		z"/>
	<path class="st1" d="M28,85.63c-0.33-0.12-0.63-0.22-0.91-0.34c-0.05-0.02-0.09-0.15-0.08-0.23c0.01-0.15,0.07-0.29,0.08-0.43
		c0-0.06-0.07-0.13-0.11-0.2c-0.05,0.04-0.14,0.07-0.16,0.12c-0.18,0.64-0.36,1.28-0.52,1.93c-0.02,0.06,0.07,0.15,0.11,0.23
		c0.06-0.05,0.17-0.08,0.18-0.14c0.04-0.2,0.27-0.39,0.01-0.63c-0.06-0.06,0.05-0.3,0.09-0.49c0.4,0.15,0.76,0.27,1.1,0.42
		c0.06,0.03,0.13,0.15,0.12,0.21c-0.11,0.54-0.23,1.07-0.37,1.68c-0.3-0.15-0.56-0.28-0.92-0.46c-0.45,0.09-0.89-0.15-1.23-0.61
		c-0.18-0.25-0.24-0.52-0.14-0.81c0.17-0.55,0.33-1.09,0.51-1.63c0.14-0.42,0.38-0.57,0.82-0.54c0.51,0.03,0.94,0.25,1.28,0.62
		C28.21,84.69,28.14,85.13,28,85.63z"/>
	<path class="st1" d="M43.43,87.76c-0.4,0.12-0.78,0.24-1.17,0.37c-0.07-0.21-0.12-0.39-0.21-0.64c-0.15,0.1-0.34,0.15-0.38,0.26
		c-0.05,0.14,0.03,0.32,0.06,0.52c-0.41,0.1-0.79,0.19-1.21,0.28c0-0.38,0-0.7,0-1.03c0-0.78,0-1.56,0.01-2.34
		c0-0.1,0.11-0.25,0.2-0.28c0.36-0.12,0.73-0.21,1.1-0.29c0.07-0.02,0.22,0.06,0.25,0.13C42.53,85.72,42.97,86.71,43.43,87.76z
		 M41.54,85.81c-0.02,0-0.05,0-0.07,0c0.02,0.39,0.05,0.79,0.07,1.2c0.13-0.03,0.22-0.05,0.33-0.08
		C41.76,86.55,41.65,86.18,41.54,85.81z"/>
	<path class="st1" d="M31.2,88.65c-0.3-0.06-0.6-0.12-0.9-0.17c-0.22-0.03-0.33-0.12-0.27-0.35c0.08-0.32-0.07-0.44-0.4-0.43
		c-0.04,0.18-0.09,0.36-0.14,0.59c-0.41-0.11-0.8-0.21-1.22-0.33c0.17-0.44,0.32-0.84,0.47-1.25c0.22-0.59,0.45-1.19,0.66-1.78
		c0.07-0.19,0.15-0.24,0.35-0.18c0.34,0.1,0.7,0.16,1.04,0.27c0.09,0.03,0.22,0.15,0.22,0.24c0.08,1.1,0.15,2.19,0.22,3.29
		C31.23,88.57,31.21,88.6,31.2,88.65z M30.08,87.14c0.02-0.42,0.04-0.79,0.06-1.16c-0.02-0.01-0.04-0.01-0.06-0.02
		c-0.11,0.36-0.22,0.72-0.34,1.1C29.87,87.09,29.95,87.11,30.08,87.14z"/>
	<path class="st1" d="M57.92,72.76c-0.22,0.39-0.43,0.76-0.65,1.15c-0.17-0.15-0.3-0.28-0.45-0.39c-0.07-0.05-0.17-0.04-0.26-0.05
		c0.01,0.1-0.02,0.24,0.04,0.3c0.33,0.33,0.67,0.64,1.01,0.96c0.12,0.11,0.25,0.22,0.38,0.32c0.24-0.23,0.24-0.23-0.34-0.82
		c0.1-0.18,0.21-0.37,0.32-0.56c0.1-0.18,0.21-0.37,0.31-0.55c0.48,0.22,0.71,0.57,0.66,1.05c-0.09,0.75-0.44,1.36-1.01,1.85
		c-0.31,0.27-0.52,0.27-0.82,0c-0.41-0.37-0.82-0.76-1.18-1.19c-0.14-0.17-0.2-0.48-0.17-0.71c0.07-0.64,0.4-1.18,0.87-1.61
		c0.33-0.3,0.54-0.3,0.91-0.05C57.67,72.54,57.78,72.64,57.92,72.76z"/>
	<path class="st1" d="M54.72,76.87c-0.06-0.05-0.09-0.07-0.11-0.08c-0.1-0.05-0.2-0.1-0.3-0.14c-0.02,0.08-0.07,0.19-0.04,0.22
		c0.09,0.08,0.21,0.17,0.32,0.19c0.1,0.01,0.22-0.07,0.32-0.12c0.22-0.1,0.44-0.2,0.66-0.3c0.3-0.13,0.56-0.07,0.79,0.15
		c0.24,0.23,0.45,0.49,0.34,0.86c-0.21,0.72-0.62,1.29-1.26,1.69c-0.39,0.25-0.64,0.13-1.04-0.45c0.23-0.28,0.47-0.57,0.74-0.89
		c0.09,0.1,0.17,0.18,0.24,0.26c0.09,0.11,0.21,0.24,0.33,0.07c0.07-0.1,0.09-0.3,0.04-0.41c-0.08-0.17-0.25-0.25-0.45-0.15
		c-0.23,0.11-0.46,0.21-0.69,0.32c-0.27,0.13-0.54,0.23-0.8,0c-0.28-0.25-0.49-0.56-0.38-0.95c0.18-0.66,0.59-1.17,1.18-1.51
		c0.25-0.14,0.64,0.01,0.75,0.27c0.02,0.05,0,0.15-0.04,0.19C55.13,76.36,54.93,76.61,54.72,76.87z"/>
	<path class="st1" d="M54.04,79.95c0.2,0.27,0.31,0.43,0.41,0.57c-0.5,0.54-0.99,1.06-1.52,1.61c-0.1-0.14-0.16-0.21-0.22-0.3
		c-0.48-0.77-0.96-1.54-1.45-2.3c-0.1-0.16-0.12-0.26,0.03-0.4c0.4-0.38,0.77-0.78,1.18-1.19c0.12,0.16,0.24,0.29,0.32,0.43
		c0.03,0.05,0.01,0.15-0.01,0.22c-0.01,0.05-0.07,0.08-0.1,0.12c-0.37,0.39-0.37,0.39,0.09,0.94c0.06-0.12,0.11-0.23,0.17-0.32
		c0.06-0.09,0.13-0.16,0.23-0.28c0.11,0.13,0.18,0.23,0.26,0.32c0.11,0.12,0.1,0.22-0.01,0.35c-0.41,0.45-0.41,0.45,0.06,0.97
		C53.66,80.45,53.83,80.22,54.04,79.95z"/>
	<path class="st1" d="M49.21,80.9c0.11,0.21,0.2,0.38,0.3,0.58c-0.08,0.07-0.14,0.13-0.21,0.19c-0.44,0.33-0.44,0.33-0.09,0.83
		c0.08-0.06,0.17-0.12,0.25-0.17c0.09-0.06,0.18-0.11,0.26-0.17c0.37,0.4,0.36,0.44-0.24,0.97c0.09,0.2,0.19,0.4,0.3,0.64
		c0.24-0.17,0.46-0.32,0.72-0.5c0.11,0.19,0.21,0.37,0.34,0.59c-0.58,0.4-1.14,0.8-1.75,1.23c-0.16-0.36-0.3-0.67-0.44-0.99
		c-0.29-0.65-0.57-1.3-0.87-1.94c-0.08-0.17-0.05-0.26,0.11-0.36C48.32,81.52,48.74,81.22,49.21,80.9z"/>
	<path class="st1" d="M12.87,71.66c-0.15-0.25-0.28-0.45-0.43-0.69c-0.64,0.48-1.26,0.94-1.92,1.43c-0.23-0.44-0.45-0.85-0.68-1.3
		c0.67-0.45,1.32-0.9,1.98-1.34c-0.05-0.11-0.1-0.2-0.14-0.3c-0.24-0.54-0.32-0.4,0.28-0.76c0.45,0.85,0.9,1.71,1.37,2.59
		C13.19,71.39,13.05,71.51,12.87,71.66z"/>
	<path class="st1" d="M38.39,88.88c-0.1-0.96-0.19-1.87-0.28-2.8c-0.22,0.02-0.4,0.03-0.6,0.04c-0.02-0.04-0.05-0.08-0.05-0.12
		c-0.09-0.56-0.08-0.55,0.47-0.62c0.48-0.06,0.97-0.12,1.44-0.22c0.29-0.06,0.42,0.01,0.42,0.3c0,0.1,0.03,0.21,0.04,0.29
		c-0.04,0.03-0.05,0.05-0.07,0.06c-0.56,0.15-0.56,0.15-0.48,0.76c0.08,0.63,0.15,1.26,0.24,1.89c0.03,0.2-0.02,0.29-0.23,0.31
		C38.99,88.79,38.71,88.84,38.39,88.88z"/>
	<path class="st1" d="M60.44,62.74c0.12-0.48,0.22-0.93,0.34-1.41c0.95,0.28,1.86,0.56,2.83,0.85c-0.12,0.52-0.24,1.02-0.37,1.58
		C62.29,63.41,61.37,63.08,60.44,62.74z"/>
	<path class="st1" d="M36.82,89.05c-0.35,0-0.65,0.01-0.96-0.01c-0.07-0.01-0.19-0.13-0.19-0.2c-0.03-1.04-0.05-2.09-0.06-3.13
		c0-0.07,0.11-0.18,0.17-0.19c0.27-0.02,0.54-0.01,0.87-0.01C36.71,86.65,36.76,87.8,36.82,89.05z"/>
	<path class="st0" d="M11.33,48.01c0.04-1.15,0.04-2.3,0.12-3.45c0.14-2.04,0.4-4.08,0.88-6.07c0.36-1.5,0.76-3,1.22-4.47
		c0.55-1.77,1.29-3.48,2.13-5.14c0.93-1.83,1.99-3.6,3.28-5.2c0.92-1.15,1.93-2.24,2.98-3.26c1.7-1.65,3.64-2.97,5.8-3.96
		c1.79-0.82,3.66-1.4,5.64-1.56c1.02-0.08,2.05-0.14,3.06-0.09c1.45,0.07,2.88,0.35,4.27,0.79c2.55,0.8,4.85,2.09,6.88,3.8
		c1.11,0.94,2.11,1.99,3.11,3.05c1.27,1.35,2.29,2.88,3.24,4.47c0.85,1.41,1.58,2.89,2.22,4.41c0.89,2.14,1.63,4.34,2.1,6.62
		c0.29,1.4,0.56,2.8,0.78,4.21c0.14,0.88,0.19,1.78,0.23,2.67c0.06,1.59,0.11,3.19,0.1,4.78c-0.01,1.06-0.1,2.12-0.23,3.18
		c-0.18,1.49-0.39,2.98-0.68,4.45c-0.41,2.12-0.99,4.2-1.8,6.21c-0.5,1.23-1,2.46-1.59,3.65c-1.05,2.12-2.33,4.1-3.84,5.93
		c-1.97,2.39-4.25,4.42-6.98,5.92c-2.03,1.12-4.19,1.86-6.5,2.17c-1.36,0.18-2.72,0.2-4.08,0.08c-1.94-0.17-3.81-0.68-5.6-1.47
		c-1.79-0.79-3.43-1.81-4.94-3.05c-1.32-1.09-2.51-2.31-3.61-3.62c-1.33-1.59-2.45-3.32-3.44-5.14c-0.83-1.52-1.52-3.1-2.12-4.73
		c-0.59-1.59-1.1-3.21-1.45-4.87c-0.29-1.38-0.54-2.78-0.76-4.18C11.41,52.09,11.32,50.05,11.33,48.01z M29.05,77.33
		c-0.04-0.17-0.05-0.24-0.07-0.31c-0.63-1.86-1.27-3.72-1.9-5.58c-0.13-0.37-0.35-0.66-0.64-0.93c-0.57-0.52-1.18-1.01-1.66-1.61
		c-1.77-2.22-3.25-4.63-4.41-7.23c-0.69-1.54-1.2-3.13-1.54-4.78c-0.35-1.66-0.56-3.33-0.65-5.02c-0.11-2.17-0.05-4.34,0.14-6.5
		c0.11-1.22,0.26-2.44,0.47-3.65c0.25-1.46,0.5-2.92,0.88-4.34c0.66-2.48,1.4-4.94,2.13-7.39c0.15-0.49,0.41-0.94,0.68-1.38
		c0.21-0.35,0.58-0.52,0.99-0.4c0.46,0.14,0.94,0.27,1.35,0.51c2.34,1.38,4.32,3.16,5.86,5.43c1.56,2.31,2.49,4.85,2.87,7.6
		c0.15,1.09,0.24,2.19,0.36,3.28c0.04,0.38,0.21,0.69,0.6,0.82c0.41,0.14,0.82,0.16,1.24,0.04c0.3-0.08,0.46-0.26,0.51-0.57
		c0.13-0.82,0.29-1.64,0.41-2.47c0.43-2.99,1.45-5.74,3.2-8.22c0.74-1.05,1.57-2.02,2.64-2.76c1.24-0.86,2.51-1.69,3.76-2.52
		c0.37-0.25,0.75-0.49,1.15-0.75c0.33,0.63,0.68,1.2,0.95,1.81c0.91,2.12,1.57,4.32,2.09,6.57c0.63,2.76,1.01,5.55,1.14,8.37
		c0.15,3.38-0.11,6.74-0.69,10.07c-0.34,2-0.75,3.98-1.44,5.9c-0.96,2.67-2.26,5.14-4.23,7.21c-0.61,0.64-1.15,1.35-1.93,1.82
		c-0.14,0.08-0.24,0.27-0.3,0.43c-0.67,1.87-1.32,3.74-1.98,5.62c-0.08,0.22-0.14,0.44-0.22,0.7c0.08-0.05,0.11-0.07,0.14-0.09
		c0.78-0.7,1.56-1.39,2.33-2.1c1.62-1.5,3.22-3.02,4.56-4.79c1.06-1.4,1.98-2.89,2.74-4.48c0.74-1.55,1.33-3.15,1.75-4.81
		c0.58-2.31,1.05-4.63,1.32-7c0.25-2.2,0.35-4.41,0.31-6.62c-0.03-2.19-0.25-4.37-0.59-6.53c-0.4-2.55-0.97-5.06-1.73-7.52
		c-0.77-2.47-1.73-4.85-3.05-7.08c-0.21-0.36-0.44-0.71-0.67-1.07c-2.52,1.62-4.89,3.36-7.04,5.4c-2.15,2.04-4.01,4.31-5.52,6.88
		c-0.05-0.04-0.08-0.05-0.1-0.08c-0.04-0.06-0.08-0.12-0.12-0.18c-1.92-3.2-4.13-6.18-6.88-8.73c-1.56-1.44-3.26-2.68-5.18-3.61
		c-0.45-0.22-0.58-0.18-0.86,0.24c-0.91,1.39-1.68,2.86-2.34,4.38c-1.3,2.99-2.15,6.11-2.72,9.31c-0.33,1.89-0.61,3.8-0.85,5.7
		c-0.27,2.17-0.4,4.36-0.33,6.55c0.09,2.65,0.37,5.27,0.98,7.85c0.88,3.7,2.33,7.17,4.39,10.36c1.7,2.63,3.79,4.94,6.14,7.02
		C27.96,76.52,28.47,76.88,29.05,77.33z M21.31,55.31c-0.04,0.03-0.07,0.05-0.11,0.08c0.29,0.68,0.57,1.38,0.89,2.05
		c0.8,1.68,1.69,3.31,2.74,4.85c1.2,1.77,2.54,3.4,4.27,4.69c2.01,1.5,4.26,2.23,6.77,1.99c2.47-0.24,4.65-1.2,6.53-2.82
		c2.14-1.85,3.51-4.19,4.27-6.91c0.52-1.87,0.61-3.78,0.39-5.69c-0.25-2.18-0.96-4.21-2.13-6.08c-0.9-1.43-2.04-2.64-3.41-3.63
		c-1.14-0.82-2.41-1.37-3.83-1.69c-0.1,0.76-0.2,1.5-0.28,2.25c-0.01,0.08,0.07,0.2,0.15,0.26c1,0.92,2.01,1.85,3.02,2.76
		c0.96,0.87,1.78,1.86,2.38,3.02c0.81,1.59,1.23,3.28,1.33,5.05c0.15,2.51-0.23,4.91-1.65,7.06c-0.87,1.32-2.04,2.27-3.54,2.81
		c-1.91,0.68-3.87,0.74-5.85,0.39c-1.83-0.33-3.4-1.16-4.55-2.66c-1.06-1.38-1.64-2.97-2-4.65c-0.1-0.43-0.31-0.65-0.67-0.83
		c-1.02-0.49-2.03-1-3.04-1.49C22.42,55.86,21.86,55.58,21.31,55.31z M31.59,53.04c0.02-0.12,0.03-0.19,0.04-0.26
		c0.13-0.9,0.71-1.54,1.32-2.15c0.48-0.49,1.09-0.77,1.76-0.88c1.31-0.22,2.49,0.11,3.58,0.84c0.36,0.25,0.71,0.51,1.08,0.78
		c0.32-0.68,0.61-1.33,0.93-1.97c0.1-0.2,0.03-0.31-0.1-0.44c-1.91-1.83-4.92-2.34-7.35-1.24c-2.28,1.03-3.49,2.93-4.14,5.23
		c-0.33,1.15-0.31,2.33-0.15,3.52c0.23,1.74,0.76,3.36,1.79,4.78c0.91,1.26,2.13,2.1,3.67,2.33c2.76,0.4,4.77-0.91,6.44-2.94
		c-0.35-0.49-0.7-0.98-1.04-1.47c-1.6,1.17-2.21,1.44-3.55,1.7c-1.24,0.23-2.26-0.05-3.08-1.07c-0.44-0.55-0.7-1.18-0.94-1.82
		c-0.2-0.54-0.26-1.1-0.24-1.75c2.1,0,4.19,0,6.29,0c-0.01-0.11-0.01-0.14-0.02-0.17c-0.39-0.88-0.78-1.76-1.19-2.62
		c-0.06-0.12-0.27-0.23-0.42-0.24c-0.84-0.05-1.69-0.06-2.54-0.09C33.03,53.09,32.33,53.06,31.59,53.04z M43.75,26.87
		c0.61-0.48,1.2-0.95,1.8-1.39c0.24-0.18,0.29-0.33,0.13-0.57c-0.42-0.64-0.8-1.29-1.25-1.9c-1.01-1.37-2.27-2.48-3.8-3.25
		c-2.43-1.22-5-1.48-7.65-1c-1.86,0.34-3.51,1.13-4.95,2.35c-1.24,1.05-2.17,2.36-2.95,3.8c0.67,0.45,1.33,0.9,1.99,1.34
		C31.2,19.6,39.93,19.52,43.75,26.87z M23.96,28.88c-0.55,3.25-0.18,6.27,1.53,9.05c1.81,2.94,4.53,4.65,7.78,5.73
		c-0.24-1.36-0.48-2.66-0.7-3.96c-0.04-0.22-0.15-0.28-0.34-0.34c-0.37-0.12-0.75-0.23-1.08-0.43c-1.11-0.67-2.05-1.53-2.79-2.59
		c-0.4-0.57-0.83-1.16-1.02-1.81c-0.36-1.25-0.55-2.55-0.84-3.83c-0.04-0.17-0.16-0.38-0.3-0.47
		C25.51,29.78,24.78,29.37,23.96,28.88z M44.25,35.05c0.03,0.02,0.06,0.03,0.09,0.05c0.78-0.8,1.57-1.59,2.34-2.4
		c0.09-0.1,0.13-0.29,0.12-0.43c-0.01-0.76-0.05-1.52-0.07-2.28c0-0.08-0.02-0.15-0.04-0.27c-0.8,0.53-1.56,1.05-2.32,1.55
		c-0.17,0.11-0.24,0.24-0.23,0.44c0.04,1.03,0.06,2.07,0.09,3.1C44.22,34.89,44.23,34.97,44.25,35.05z"/>
	<path d="M50.27,16.01c-0.08-0.06-0.18-0.09-0.2-0.16c-0.02-0.07-0.01-0.19,0.04-0.25c0.28-0.39,0.57-0.78,0.87-1.17
		c0.37-0.48,0.75-0.97,1.13-1.45c0.12-0.15,0.26-0.32,0.47-0.14c0.2,0.16,0.07,0.33-0.04,0.47c-0.65,0.81-1.3,1.61-1.95,2.41
		C50.5,15.83,50.39,15.91,50.27,16.01z"/>
	<path d="M25.47,12.32c-0.05,0.06-0.1,0.17-0.16,0.17c-0.08,0.01-0.21-0.05-0.24-0.12c-0.19-0.36-0.36-0.74-0.53-1.11
		c-0.28-0.61-0.56-1.23-0.83-1.85c-0.04-0.1-0.1-0.2-0.09-0.3c0.01-0.1,0.07-0.23,0.15-0.27c0.07-0.03,0.24,0.02,0.28,0.09
		c0.12,0.2,0.2,0.41,0.3,0.63c0.35,0.8,0.69,1.61,1.03,2.41C25.41,12.07,25.43,12.18,25.47,12.32z"/>
	<path d="M62.12,58.6c0.35,0,0.7,0,1.09,0c-0.03,0.17-0.05,0.32-0.08,0.52c-0.36-0.16-0.69-0.32-1.02-0.47
		C62.11,58.63,62.12,58.61,62.12,58.6z"/>
	<path d="M8.78,62.33c-0.29,0.15-0.58,0.31-0.9,0.48c-0.05-0.17-0.09-0.31-0.14-0.48c0.37-0.03,0.7-0.05,1.03-0.07
		C8.77,62.28,8.78,62.31,8.78,62.33z"/>
	<path d="M58.6,69.68c0.08,0.04,0.15,0.07,0.21,0.11c0.4,0.27,0.81,0.54,1.2,0.82c0.08,0.05,0.16,0.12,0.19,0.2
		c0.02,0.06-0.01,0.17-0.05,0.23c-0.02,0.03-0.14,0.04-0.19,0.01c-0.48-0.33-0.96-0.66-1.42-1c-0.06-0.04-0.07-0.16-0.07-0.25
		C58.48,69.76,58.55,69.72,58.6,69.68z"/>
	<path d="M46.54,85.76c-0.14-0.39-0.28-0.78-0.43-1.17c-0.09-0.24-0.18-0.47-0.25-0.72c-0.02-0.08,0.03-0.17,0.05-0.26
		c0.08,0.05,0.2,0.08,0.23,0.15c0.14,0.33,0.25,0.67,0.38,1c0.08,0.21,0.15,0.41,0.22,0.62C46.8,85.56,46.78,85.7,46.54,85.76z"/>
	<path d="M12.73,74.12c0.31-0.18,0.59-0.34,0.87-0.51c0.01,0.02,0.03,0.04,0.04,0.06c-0.22,0.26-0.43,0.53-0.68,0.82
		C12.89,74.36,12.82,74.26,12.73,74.12z"/>
	<path d="M23.7,82.89c0.22,0.18,0.22,0.58,0.01,0.71c-0.05,0.03-0.14,0.02-0.2-0.01c-0.03-0.02-0.04-0.1-0.05-0.16
		c0-0.03,0.02-0.06,0.03-0.09C23.56,83.2,23.62,83.06,23.7,82.89z"/>
	<path d="M33.31,86.77c0.02-0.26,0.03-0.5,0.04-0.75c0.25,0.01,0.3,0.15,0.28,0.32C33.6,86.51,33.69,86.78,33.31,86.77z"/>
	<path d="M20.65,81.43c-0.13,0.33-0.25,0.65-0.4,1.02c-0.11-0.08-0.2-0.14-0.31-0.23c0.22-0.28,0.43-0.55,0.64-0.82
		C20.6,81.41,20.63,81.42,20.65,81.43z"/>
	<path d="M41.54,85.81c0.11,0.37,0.22,0.74,0.34,1.12c-0.12,0.03-0.2,0.05-0.33,0.08c-0.03-0.42-0.05-0.81-0.07-1.2
		C41.5,85.81,41.52,85.81,41.54,85.81z"/>
	<path d="M30.08,87.14c-0.13-0.03-0.22-0.05-0.34-0.07c0.12-0.38,0.23-0.74,0.34-1.1c0.02,0.01,0.04,0.01,0.06,0.02
		C30.12,86.35,30.1,86.72,30.08,87.14z"/>
	<path class="st1" d="M29.05,77.33c-0.57-0.45-1.09-0.81-1.56-1.23c-2.34-2.08-4.44-4.39-6.14-7.02c-2.06-3.19-3.52-6.65-4.39-10.36
		c-0.61-2.58-0.88-5.2-0.98-7.85c-0.08-2.19,0.05-4.38,0.33-6.55c0.24-1.91,0.52-3.81,0.85-5.7c0.56-3.2,1.42-6.32,2.72-9.31
		c0.66-1.52,1.43-2.99,2.34-4.38c0.28-0.42,0.41-0.46,0.86-0.24c1.92,0.93,3.62,2.17,5.18,3.61c2.75,2.55,4.96,5.53,6.88,8.73
		c0.04,0.06,0.08,0.12,0.12,0.18c0.02,0.02,0.05,0.04,0.1,0.08c1.5-2.57,3.37-4.84,5.52-6.88c2.15-2.04,4.52-3.78,7.04-5.4
		c0.23,0.36,0.46,0.71,0.67,1.07c1.32,2.23,2.29,4.61,3.05,7.08c0.76,2.47,1.33,4.98,1.73,7.52c0.34,2.16,0.56,4.34,0.59,6.53
		c0.03,2.21-0.06,4.42-0.31,6.62c-0.27,2.37-0.74,4.69-1.32,7c-0.42,1.66-1.01,3.27-1.75,4.81c-0.76,1.59-1.68,3.08-2.74,4.48
		c-1.34,1.77-2.94,3.29-4.56,4.79c-0.77,0.71-1.55,1.4-2.33,2.1c-0.03,0.02-0.06,0.04-0.14,0.09c0.08-0.27,0.15-0.49,0.22-0.7
		c0.66-1.87,1.31-3.75,1.98-5.62c0.06-0.16,0.16-0.35,0.3-0.43c0.78-0.47,1.32-1.18,1.93-1.82c1.97-2.07,3.27-4.54,4.23-7.21
		c0.69-1.92,1.1-3.9,1.44-5.9c0.57-3.33,0.84-6.69,0.69-10.07c-0.13-2.82-0.51-5.61-1.14-8.37c-0.51-2.25-1.17-4.45-2.09-6.57
		c-0.26-0.61-0.61-1.18-0.95-1.81c-0.4,0.26-0.78,0.5-1.15,0.75c-1.26,0.84-2.52,1.66-3.76,2.52c-1.06,0.74-1.89,1.71-2.64,2.76
		c-1.75,2.47-2.77,5.23-3.2,8.22c-0.12,0.83-0.28,1.64-0.41,2.47c-0.05,0.31-0.21,0.49-0.51,0.57c-0.42,0.12-0.84,0.1-1.24-0.04
		c-0.39-0.13-0.55-0.43-0.6-0.82c-0.12-1.09-0.21-2.19-0.36-3.28c-0.38-2.75-1.3-5.3-2.87-7.6c-1.53-2.26-3.51-4.05-5.86-5.43
		c-0.41-0.24-0.89-0.37-1.35-0.51c-0.41-0.12-0.78,0.06-0.99,0.4c-0.27,0.44-0.53,0.9-0.68,1.38c-0.74,2.46-1.48,4.91-2.13,7.39
		c-0.38,1.43-0.63,2.89-0.88,4.34c-0.21,1.21-0.36,2.43-0.47,3.65c-0.19,2.16-0.25,4.33-0.14,6.5c0.08,1.69,0.3,3.37,0.65,5.02
		c0.34,1.65,0.86,3.25,1.54,4.78c1.16,2.6,2.63,5.01,4.41,7.23c0.48,0.6,1.09,1.09,1.66,1.61c0.29,0.26,0.51,0.55,0.64,0.93
		c0.63,1.86,1.26,3.72,1.9,5.58C29,77.09,29.01,77.16,29.05,77.33z"/>
	<path class="st1" d="M21.31,55.31c0.56,0.27,1.11,0.55,1.67,0.82c1.01,0.5,2.02,1.01,3.04,1.49c0.36,0.17,0.58,0.39,0.67,0.83
		c0.37,1.67,0.95,3.27,2,4.65c1.15,1.5,2.72,2.33,4.55,2.66c1.98,0.36,3.94,0.3,5.85-0.39c1.49-0.54,2.67-1.49,3.54-2.81
		c1.42-2.15,1.8-4.55,1.65-7.06c-0.1-1.77-0.53-3.46-1.33-5.05c-0.59-1.17-1.41-2.15-2.38-3.02c-1.01-0.92-2.01-1.84-3.02-2.76
		c-0.07-0.07-0.16-0.18-0.15-0.26c0.08-0.74,0.18-1.48,0.28-2.25c1.42,0.32,2.69,0.87,3.83,1.69c1.37,0.99,2.51,2.19,3.41,3.63
		c1.17,1.87,1.88,3.9,2.13,6.08c0.22,1.92,0.13,3.82-0.39,5.69c-0.76,2.71-2.14,5.05-4.27,6.91c-1.87,1.62-4.06,2.59-6.53,2.82
		c-2.51,0.24-4.76-0.49-6.77-1.99c-1.73-1.29-3.07-2.92-4.27-4.69c-1.05-1.54-1.94-3.17-2.74-4.85c-0.32-0.67-0.59-1.37-0.89-2.05
		C21.23,55.36,21.27,55.34,21.31,55.31z"/>
	<path class="st1" d="M31.59,53.04c0.74,0.03,1.44,0.05,2.13,0.08c0.85,0.03,1.69,0.04,2.54,0.09c0.15,0.01,0.36,0.11,0.42,0.24
		c0.42,0.87,0.8,1.75,1.19,2.62c0.01,0.03,0.01,0.06,0.02,0.17c-2.1,0-4.18,0-6.29,0c-0.02,0.65,0.04,1.21,0.24,1.75
		c0.24,0.64,0.5,1.26,0.94,1.82c0.81,1.02,1.84,1.3,3.08,1.07c1.35-0.25,1.96-0.53,3.55-1.7c0.35,0.49,0.69,0.98,1.04,1.47
		c-1.67,2.03-3.68,3.34-6.44,2.94c-1.55-0.23-2.76-1.07-3.67-2.33c-1.03-1.43-1.55-3.05-1.79-4.78c-0.16-1.19-0.18-2.37,0.15-3.52
		c0.66-2.3,1.87-4.2,4.14-5.23c2.43-1.1,5.44-0.59,7.35,1.24c0.13,0.13,0.2,0.24,0.1,0.44c-0.32,0.64-0.62,1.29-0.93,1.97
		c-0.37-0.27-0.72-0.54-1.08-0.78c-1.08-0.73-2.27-1.07-3.58-0.84c-0.67,0.11-1.27,0.4-1.76,0.88c-0.61,0.61-1.19,1.24-1.32,2.15
		C31.62,52.85,31.61,52.92,31.59,53.04z"/>
	<path class="st1" d="M43.75,26.87c-3.81-7.35-12.55-7.28-16.69-0.62c-0.66-0.45-1.32-0.89-1.99-1.34c0.78-1.45,1.71-2.75,2.95-3.8
		c1.44-1.22,3.09-2.01,4.95-2.35c2.66-0.49,5.23-0.22,7.65,1c1.53,0.77,2.79,1.87,3.8,3.25c0.45,0.61,0.84,1.27,1.25,1.9
		c0.16,0.24,0.11,0.4-0.13,0.57C44.94,25.92,44.36,26.39,43.75,26.87z"/>
	<path class="st1" d="M23.96,28.88c0.82,0.48,1.55,0.9,2.25,1.34c0.15,0.09,0.27,0.3,0.3,0.47c0.28,1.28,0.47,2.58,0.84,3.83
		c0.19,0.65,0.62,1.24,1.02,1.81c0.74,1.06,1.68,1.93,2.79,2.59c0.33,0.2,0.71,0.31,1.08,0.43c0.19,0.06,0.3,0.13,0.34,0.34
		c0.22,1.3,0.45,2.6,0.7,3.96c-3.25-1.08-5.97-2.79-7.78-5.73C23.78,35.15,23.41,32.13,23.96,28.88z"/>
	<path class="st1" d="M44.25,35.05c-0.01-0.08-0.03-0.16-0.03-0.25c-0.03-1.03-0.05-2.07-0.09-3.1c-0.01-0.2,0.06-0.33,0.23-0.44
		c0.77-0.5,1.52-1.01,2.32-1.55c0.02,0.12,0.04,0.2,0.04,0.27c0.03,0.76,0.06,1.52,0.07,2.28c0,0.15-0.03,0.33-0.12,0.43
		c-0.77,0.81-1.56,1.6-2.34,2.4C44.3,35.09,44.27,35.07,44.25,35.05z"/>
</g>
</svg>
